G04*
G04 #@! TF.GenerationSoftware,Altium Limited,Altium Designer,18.1.1 (9)*
G04*
G04 Layer_Color=65535*
%FSLAX42Y42*%
%MOMM*%
G71*
G01*
G75*
%ADD10C,0.12*%
%ADD11C,0.60*%
%ADD12C,0.25*%
%ADD13C,0.20*%
%ADD14C,0.15*%
G36*
X1100Y4825D02*
X1225Y4825D01*
Y4950D01*
X1100Y4950D01*
Y4825D01*
D02*
G37*
G36*
X3500Y4825D02*
X3625D01*
Y4950D01*
X3500D01*
Y4825D01*
D02*
G37*
D10*
X3420Y1546D02*
G03*
X3920Y1546I250J0D01*
G01*
Y2182D02*
G03*
X3420Y2182I-250J0D01*
G01*
X495Y2080D02*
G03*
X495Y2180I-5J50D01*
G01*
X3920Y1546D02*
Y2182D01*
X3420Y1546D02*
Y2182D01*
X788Y1975D02*
X805D01*
Y2285D01*
X788D02*
X805D01*
X495Y1975D02*
X512D01*
X495Y2285D02*
X512D01*
X495Y1975D02*
Y2080D01*
Y2180D02*
Y2285D01*
X5567Y2135D02*
X5633D01*
X5567Y2265D02*
X5633D01*
X6468D02*
X6532D01*
X6468Y2135D02*
X6532D01*
X5396Y1373D02*
Y1627D01*
X7128D01*
Y1373D02*
Y1627D01*
X5396Y1373D02*
X7128D01*
X2296Y4473D02*
X3266D01*
Y4727D01*
X2296D02*
X3266D01*
X2296Y4473D02*
Y4727D01*
X2933Y1846D02*
Y2816D01*
Y1846D02*
X3187D01*
Y2816D01*
X2933D02*
X3187D01*
X741Y2750D02*
Y2796D01*
X1199Y2504D02*
Y2550D01*
X741Y2504D02*
X1199D01*
X741D02*
Y2550D01*
Y2796D02*
X1199D01*
Y2750D02*
Y2796D01*
X5284Y3631D02*
X5329D01*
X5531Y4089D02*
X5576D01*
Y3631D02*
Y4089D01*
X5531Y3631D02*
X5576D01*
X5284D02*
Y4089D01*
X5329D01*
X6435Y3719D02*
Y3795D01*
Y3345D02*
Y3421D01*
X5685Y3795D02*
X6435D01*
X5685Y3719D02*
Y3795D01*
Y3345D02*
X6435D01*
X5685D02*
Y3421D01*
X6139Y3095D02*
X6215D01*
Y2345D02*
Y3095D01*
X6139Y2345D02*
X6215D01*
X5765Y3095D02*
X5841D01*
X5765Y2345D02*
X5841D01*
X5765D02*
Y3095D01*
X5080Y2680D02*
X5420D01*
X5080Y2500D02*
X5420D01*
X3700Y2780D02*
Y3400D01*
X3500Y2780D02*
X3700D01*
X3500D02*
Y3400D01*
X1559Y2427D02*
X1635D01*
Y1677D02*
Y2427D01*
X1559Y1677D02*
X1635D01*
X1185Y2427D02*
X1261D01*
X1185Y1677D02*
X1261D01*
X1185D02*
Y2427D01*
X985Y4090D02*
X1355D01*
X985Y3790D02*
X1355D01*
X3977Y2677D02*
X3960Y2660D01*
Y2627D01*
X3977Y2610D01*
X4043D01*
X4060Y2627D01*
Y2660D01*
X4043Y2677D01*
X3960Y2777D02*
Y2710D01*
X4010D01*
X3993Y2743D01*
Y2760D01*
X4010Y2777D01*
X4043D01*
X4060Y2760D01*
Y2727D01*
X4043Y2710D01*
X3317Y2907D02*
X3300Y2890D01*
Y2857D01*
X3317Y2840D01*
X3383D01*
X3400Y2857D01*
Y2890D01*
X3383Y2907D01*
X3400Y2990D02*
X3300D01*
X3350Y2940D01*
Y3007D01*
X4430Y2550D02*
Y2650D01*
X4480D01*
X4497Y2633D01*
Y2600D01*
X4480Y2583D01*
X4430D01*
X4463D02*
X4497Y2550D01*
X4597Y2650D02*
X4530D01*
Y2600D01*
X4563Y2617D01*
X4580D01*
X4597Y2600D01*
Y2567D01*
X4580Y2550D01*
X4547D01*
X4530Y2567D01*
X4150Y2550D02*
Y2650D01*
X4200D01*
X4217Y2633D01*
Y2600D01*
X4200Y2583D01*
X4150D01*
X4183D02*
X4217Y2550D01*
X4317Y2650D02*
X4283Y2633D01*
X4250Y2600D01*
Y2567D01*
X4267Y2550D01*
X4300D01*
X4317Y2567D01*
Y2583D01*
X4300Y2600D01*
X4250D01*
X2380Y3790D02*
Y3707D01*
X2397Y3690D01*
X2430D01*
X2447Y3707D01*
Y3790D01*
X2547D02*
X2513Y3773D01*
X2480Y3740D01*
Y3707D01*
X2497Y3690D01*
X2530D01*
X2547Y3707D01*
Y3723D01*
X2530Y3740D01*
X2480D01*
X2730Y2950D02*
X2630D01*
Y3000D01*
X2647Y3017D01*
X2680D01*
X2697Y3000D01*
Y2950D01*
Y2983D02*
X2730Y3017D01*
Y3050D02*
Y3083D01*
Y3067D01*
X2630D01*
X2647Y3050D01*
X2713Y3133D02*
X2730Y3150D01*
Y3183D01*
X2713Y3200D01*
X2647D01*
X2630Y3183D01*
Y3150D01*
X2647Y3133D01*
X2663D01*
X2680Y3150D01*
Y3200D01*
X1477Y3617D02*
X1460Y3600D01*
Y3567D01*
X1477Y3550D01*
X1543D01*
X1560Y3567D01*
Y3600D01*
X1543Y3617D01*
X1560Y3650D02*
Y3683D01*
Y3667D01*
X1460D01*
X1477Y3650D01*
X1543Y3733D02*
X1560Y3750D01*
Y3783D01*
X1543Y3800D01*
X1477D01*
X1460Y3783D01*
Y3750D01*
X1477Y3733D01*
X1493D01*
X1510Y3750D01*
Y3800D01*
X6650Y2330D02*
Y2430D01*
X6700D01*
X6717Y2413D01*
Y2380D01*
X6700Y2363D01*
X6650D01*
X6683D02*
X6717Y2330D01*
X6750Y2413D02*
X6767Y2430D01*
X6800D01*
X6817Y2413D01*
Y2397D01*
X6800Y2380D01*
X6817Y2363D01*
Y2347D01*
X6800Y2330D01*
X6767D01*
X6750Y2347D01*
Y2363D01*
X6767Y2380D01*
X6750Y2397D01*
Y2413D01*
X6767Y2380D02*
X6800D01*
X6970Y2860D02*
Y2777D01*
X6987Y2760D01*
X7020D01*
X7037Y2777D01*
Y2860D01*
X7137Y2760D02*
X7070D01*
X7137Y2827D01*
Y2843D01*
X7120Y2860D01*
X7087D01*
X7070Y2843D01*
X7250Y2950D02*
X7150D01*
Y3000D01*
X7167Y3017D01*
X7200D01*
X7217Y3000D01*
Y2950D01*
Y2983D02*
X7250Y3017D01*
X7150Y3050D02*
Y3117D01*
X7167D01*
X7233Y3050D01*
X7250D01*
X6950Y3340D02*
X6850D01*
Y3390D01*
X6867Y3407D01*
X6900D01*
X6917Y3390D01*
Y3340D01*
Y3373D02*
X6950Y3407D01*
Y3490D02*
X6850D01*
X6900Y3440D01*
Y3507D01*
X6727Y3990D02*
X6693D01*
X6710D01*
Y3907D01*
X6693Y3890D01*
X6677D01*
X6660Y3907D01*
X6760Y3890D02*
Y3990D01*
X6810D01*
X6827Y3973D01*
Y3940D01*
X6810Y3923D01*
X6760D01*
X6860Y3890D02*
X6893D01*
X6877D01*
Y3990D01*
X6860Y3973D01*
X6607Y3773D02*
X6590Y3790D01*
X6557D01*
X6540Y3773D01*
Y3707D01*
X6557Y3690D01*
X6590D01*
X6607Y3707D01*
X6640Y3690D02*
X6673D01*
X6657D01*
Y3790D01*
X6640Y3773D01*
X5140Y3780D02*
X5240D01*
Y3830D01*
X5223Y3847D01*
X5157D01*
X5140Y3830D01*
Y3780D01*
X5240Y3880D02*
Y3913D01*
Y3897D01*
X5140D01*
X5157Y3880D01*
X4920Y3997D02*
Y3930D01*
X4970D01*
Y3963D01*
Y3930D01*
X5020D01*
Y4097D02*
Y4030D01*
X4953Y4097D01*
X4937D01*
X4920Y4080D01*
Y4047D01*
X4937Y4030D01*
X4290Y4230D02*
Y4130D01*
X4340D01*
X4357Y4147D01*
Y4213D01*
X4340Y4230D01*
X4290D01*
X4457Y4130D02*
X4390D01*
X4457Y4197D01*
Y4213D01*
X4440Y4230D01*
X4407D01*
X4390Y4213D01*
X4140Y3720D02*
Y3820D01*
X4190D01*
X4207Y3803D01*
Y3770D01*
X4190Y3753D01*
X4140D01*
X4173D02*
X4207Y3720D01*
X4307D02*
X4240D01*
X4307Y3787D01*
Y3803D01*
X4290Y3820D01*
X4257D01*
X4240Y3803D01*
X3770Y4002D02*
Y3935D01*
X3820D01*
Y3968D01*
Y3935D01*
X3870D01*
Y4035D02*
Y4068D01*
Y4052D01*
X3770D01*
X3787Y4035D01*
X4670Y3600D02*
Y3700D01*
X4720D01*
X4737Y3683D01*
Y3650D01*
X4720Y3633D01*
X4670D01*
X4703D02*
X4737Y3600D01*
X4770D02*
X4803D01*
X4787D01*
Y3700D01*
X4770Y3683D01*
X3947Y3703D02*
X3930Y3720D01*
X3897D01*
X3880Y3703D01*
Y3637D01*
X3897Y3620D01*
X3930D01*
X3947Y3637D01*
X3980Y3703D02*
X3997Y3720D01*
X4030D01*
X4047Y3703D01*
Y3687D01*
X4030Y3670D01*
X4013D01*
X4030D01*
X4047Y3653D01*
Y3637D01*
X4030Y3620D01*
X3997D01*
X3980Y3637D01*
X4050Y3320D02*
X3950D01*
Y3370D01*
X3967Y3387D01*
X4000D01*
X4017Y3370D01*
Y3320D01*
Y3353D02*
X4050Y3387D01*
X3967Y3420D02*
X3950Y3437D01*
Y3470D01*
X3967Y3487D01*
X3983D01*
X4000Y3470D01*
Y3453D01*
Y3470D01*
X4017Y3487D01*
X4033D01*
X4050Y3470D01*
Y3437D01*
X4033Y3420D01*
X4060Y3150D02*
Y3067D01*
X4077Y3050D01*
X4110D01*
X4127Y3067D01*
Y3150D01*
X4160Y3050D02*
X4193D01*
X4177D01*
Y3150D01*
X4160Y3133D01*
X5087Y3493D02*
X5070Y3510D01*
X5037D01*
X5020Y3493D01*
Y3427D01*
X5037Y3410D01*
X5070D01*
X5087Y3427D01*
X5120Y3410D02*
X5153D01*
X5137D01*
Y3510D01*
X5120Y3493D01*
X5203D02*
X5220Y3510D01*
X5253D01*
X5270Y3493D01*
Y3477D01*
X5253Y3460D01*
X5237D01*
X5253D01*
X5270Y3443D01*
Y3427D01*
X5253Y3410D01*
X5220D01*
X5203Y3427D01*
X5547Y3423D02*
X5530Y3440D01*
X5497D01*
X5480Y3423D01*
Y3357D01*
X5497Y3340D01*
X5530D01*
X5547Y3357D01*
X5647Y3340D02*
X5580D01*
X5647Y3407D01*
Y3423D01*
X5630Y3440D01*
X5597D01*
X5580Y3423D01*
X5597Y2977D02*
X5580Y2960D01*
Y2927D01*
X5597Y2910D01*
X5663D01*
X5680Y2927D01*
Y2960D01*
X5663Y2977D01*
X5680Y3010D02*
Y3043D01*
Y3027D01*
X5580D01*
X5597Y3010D01*
X5680Y3143D02*
X5580D01*
X5630Y3093D01*
Y3160D01*
X5507Y2833D02*
X5490Y2850D01*
X5457D01*
X5440Y2833D01*
Y2767D01*
X5457Y2750D01*
X5490D01*
X5507Y2767D01*
X5540Y2750D02*
X5573D01*
X5557D01*
Y2850D01*
X5540Y2833D01*
X5623D02*
X5640Y2850D01*
X5673D01*
X5690Y2833D01*
Y2767D01*
X5673Y2750D01*
X5640D01*
X5623Y2767D01*
Y2833D01*
X5937Y2233D02*
X5920Y2250D01*
X5887D01*
X5870Y2233D01*
Y2167D01*
X5887Y2150D01*
X5920D01*
X5937Y2167D01*
X5970Y2150D02*
X6003D01*
X5987D01*
Y2250D01*
X5970Y2233D01*
X6053Y2150D02*
X6087D01*
X6070D01*
Y2250D01*
X6053Y2233D01*
X5530Y2090D02*
Y1990D01*
X5580D01*
X5597Y2007D01*
Y2073D01*
X5580Y2090D01*
X5530D01*
X5680Y1990D02*
Y2090D01*
X5630Y2040D01*
X5697D01*
X5530Y2500D02*
Y2600D01*
X5580D01*
X5597Y2583D01*
Y2550D01*
X5580Y2533D01*
X5530D01*
X5563D02*
X5597Y2500D01*
X5630Y2517D02*
X5647Y2500D01*
X5680D01*
X5697Y2517D01*
Y2583D01*
X5680Y2600D01*
X5647D01*
X5630Y2583D01*
Y2567D01*
X5647Y2550D01*
X5697D01*
X5197Y2453D02*
X5180Y2470D01*
X5147D01*
X5130Y2453D01*
Y2387D01*
X5147Y2370D01*
X5180D01*
X5197Y2387D01*
X5230Y2370D02*
X5263D01*
X5247D01*
Y2470D01*
X5230Y2453D01*
X5380Y2370D02*
X5313D01*
X5380Y2437D01*
Y2453D01*
X5363Y2470D01*
X5330D01*
X5313Y2453D01*
X6217Y1310D02*
X6183D01*
X6200D01*
Y1227D01*
X6183Y1210D01*
X6167D01*
X6150Y1227D01*
X6250Y1210D02*
Y1310D01*
X6300D01*
X6317Y1293D01*
Y1260D01*
X6300Y1243D01*
X6250D01*
X6417Y1310D02*
X6350D01*
Y1260D01*
X6383Y1277D01*
X6400D01*
X6417Y1260D01*
Y1227D01*
X6400Y1210D01*
X6367D01*
X6350Y1227D01*
X4680Y1360D02*
Y1277D01*
X4697Y1260D01*
X4730D01*
X4747Y1277D01*
Y1360D01*
X4780Y1343D02*
X4797Y1360D01*
X4830D01*
X4847Y1343D01*
Y1327D01*
X4830Y1310D01*
X4813D01*
X4830D01*
X4847Y1293D01*
Y1277D01*
X4830Y1260D01*
X4797D01*
X4780Y1277D01*
X4317Y1247D02*
X4300Y1230D01*
Y1197D01*
X4317Y1180D01*
X4383D01*
X4400Y1197D01*
Y1230D01*
X4383Y1247D01*
X4317Y1280D02*
X4300Y1297D01*
Y1330D01*
X4317Y1347D01*
X4333D01*
X4350Y1330D01*
X4367Y1347D01*
X4383D01*
X4400Y1330D01*
Y1297D01*
X4383Y1280D01*
X4367D01*
X4350Y1297D01*
X4333Y1280D01*
X4317D01*
X4350Y1297D02*
Y1330D01*
X3907Y1247D02*
X3890Y1230D01*
Y1197D01*
X3907Y1180D01*
X3973D01*
X3990Y1197D01*
Y1230D01*
X3973Y1247D01*
Y1280D02*
X3990Y1297D01*
Y1330D01*
X3973Y1347D01*
X3907D01*
X3890Y1330D01*
Y1297D01*
X3907Y1280D01*
X3923D01*
X3940Y1297D01*
Y1347D01*
X3590Y1250D02*
Y1233D01*
X3623Y1200D01*
X3657Y1233D01*
Y1250D01*
X3623Y1200D02*
Y1150D01*
X3757D02*
X3690D01*
X3757Y1217D01*
Y1233D01*
X3740Y1250D01*
X3707D01*
X3690Y1233D01*
X3287Y1427D02*
X3270Y1410D01*
Y1377D01*
X3287Y1360D01*
X3353D01*
X3370Y1377D01*
Y1410D01*
X3353Y1427D01*
X3270Y1460D02*
Y1527D01*
X3287D01*
X3353Y1460D01*
X3370D01*
X3287Y2257D02*
X3270Y2240D01*
Y2207D01*
X3287Y2190D01*
X3353D01*
X3370Y2207D01*
Y2240D01*
X3353Y2257D01*
X3270Y2357D02*
X3287Y2323D01*
X3320Y2290D01*
X3353D01*
X3370Y2307D01*
Y2340D01*
X3353Y2357D01*
X3337D01*
X3320Y2340D01*
Y2290D01*
X2790Y1857D02*
Y1823D01*
Y1840D01*
X2873D01*
X2890Y1823D01*
Y1807D01*
X2873Y1790D01*
X2890Y1890D02*
X2790D01*
Y1940D01*
X2807Y1957D01*
X2840D01*
X2857Y1940D01*
Y1890D01*
X2807Y1990D02*
X2790Y2007D01*
Y2040D01*
X2807Y2057D01*
X2823D01*
X2840Y2040D01*
Y2023D01*
Y2040D01*
X2857Y2057D01*
X2873D01*
X2890Y2040D01*
Y2007D01*
X2873Y1990D01*
X3320Y3150D02*
Y3133D01*
X3353Y3100D01*
X3387Y3133D01*
Y3150D01*
X3353Y3100D02*
Y3050D01*
X3420D02*
X3453D01*
X3437D01*
Y3150D01*
X3420Y3133D01*
X3547Y4200D02*
X3513D01*
X3530D01*
Y4117D01*
X3513Y4100D01*
X3497D01*
X3480Y4117D01*
X3580Y4100D02*
Y4200D01*
X3630D01*
X3647Y4183D01*
Y4150D01*
X3630Y4133D01*
X3580D01*
X3747Y4100D02*
X3680D01*
X3747Y4167D01*
Y4183D01*
X3730Y4200D01*
X3697D01*
X3680Y4183D01*
X2707Y4440D02*
X2673D01*
X2690D01*
Y4357D01*
X2673Y4340D01*
X2657D01*
X2640Y4357D01*
X2740Y4340D02*
Y4440D01*
X2790D01*
X2807Y4423D01*
Y4390D01*
X2790Y4373D01*
X2740D01*
X2890Y4340D02*
Y4440D01*
X2840Y4390D01*
X2907D01*
X847Y4620D02*
X813D01*
X830D01*
Y4537D01*
X813Y4520D01*
X797D01*
X780Y4537D01*
X880Y4520D02*
Y4620D01*
X930D01*
X947Y4603D01*
Y4570D01*
X930Y4553D01*
X880D01*
X1047Y4620D02*
X1013Y4603D01*
X980Y4570D01*
Y4537D01*
X997Y4520D01*
X1030D01*
X1047Y4537D01*
Y4553D01*
X1030Y4570D01*
X980D01*
X1727Y3917D02*
X1710Y3900D01*
Y3867D01*
X1727Y3850D01*
X1793D01*
X1810Y3867D01*
Y3900D01*
X1793Y3917D01*
X1810Y3950D02*
Y3983D01*
Y3967D01*
X1710D01*
X1727Y3950D01*
Y4033D02*
X1710Y4050D01*
Y4083D01*
X1727Y4100D01*
X1743D01*
X1760Y4083D01*
X1777Y4100D01*
X1793D01*
X1810Y4083D01*
Y4050D01*
X1793Y4033D01*
X1777D01*
X1760Y4050D01*
X1743Y4033D01*
X1727D01*
X1760Y4050D02*
Y4083D01*
X2170Y3850D02*
X2070D01*
Y3900D01*
X2087Y3917D01*
X2120D01*
X2137Y3900D01*
Y3850D01*
Y3883D02*
X2170Y3917D01*
Y4017D02*
Y3950D01*
X2103Y4017D01*
X2087D01*
X2070Y4000D01*
Y3967D01*
X2087Y3950D01*
X2170Y4117D02*
Y4050D01*
X2103Y4117D01*
X2087D01*
X2070Y4100D01*
Y4067D01*
X2087Y4050D01*
X2650Y3530D02*
Y3630D01*
X2700D01*
X2717Y3613D01*
Y3580D01*
X2700Y3563D01*
X2650D01*
X2683D02*
X2717Y3530D01*
X2817D02*
X2750D01*
X2817Y3597D01*
Y3613D01*
X2800Y3630D01*
X2767D01*
X2750Y3613D01*
X2850Y3530D02*
X2883D01*
X2867D01*
Y3630D01*
X2850Y3613D01*
X2630Y3380D02*
Y3480D01*
X2680D01*
X2697Y3463D01*
Y3430D01*
X2680Y3413D01*
X2630D01*
X2663D02*
X2697Y3380D01*
X2797D02*
X2730D01*
X2797Y3447D01*
Y3463D01*
X2780Y3480D01*
X2747D01*
X2730Y3463D01*
X2830D02*
X2847Y3480D01*
X2880D01*
X2897Y3463D01*
Y3397D01*
X2880Y3380D01*
X2847D01*
X2830Y3397D01*
Y3463D01*
X2807Y2237D02*
X2790Y2220D01*
Y2187D01*
X2807Y2170D01*
X2873D01*
X2890Y2187D01*
Y2220D01*
X2873Y2237D01*
X2890Y2270D02*
Y2303D01*
Y2287D01*
X2790D01*
X2807Y2270D01*
X2790Y2420D02*
X2807Y2387D01*
X2840Y2353D01*
X2873D01*
X2890Y2370D01*
Y2403D01*
X2873Y2420D01*
X2857D01*
X2840Y2403D01*
Y2353D01*
X2890Y2510D02*
X2790D01*
Y2560D01*
X2807Y2577D01*
X2840D01*
X2857Y2560D01*
Y2510D01*
Y2543D02*
X2890Y2577D01*
Y2610D02*
Y2643D01*
Y2627D01*
X2790D01*
X2807Y2610D01*
X2790Y2760D02*
Y2693D01*
X2840D01*
X2823Y2727D01*
Y2743D01*
X2840Y2760D01*
X2873D01*
X2890Y2743D01*
Y2710D01*
X2873Y2693D01*
X1880Y2450D02*
Y2367D01*
X1897Y2350D01*
X1930D01*
X1947Y2367D01*
Y2450D01*
X2047D02*
X1980D01*
Y2400D01*
X2013Y2417D01*
X2030D01*
X2047Y2400D01*
Y2367D01*
X2030Y2350D01*
X1997D01*
X1980Y2367D01*
X2070Y2950D02*
Y3050D01*
X2120D01*
X2137Y3033D01*
Y3000D01*
X2120Y2983D01*
X2070D01*
X2103D02*
X2137Y2950D01*
X2170D02*
X2203D01*
X2187D01*
Y3050D01*
X2170Y3033D01*
X2253Y3050D02*
X2320D01*
Y3033D01*
X2253Y2967D01*
Y2950D01*
X1580Y3150D02*
X1480D01*
Y3200D01*
X1497Y3217D01*
X1530D01*
X1547Y3200D01*
Y3150D01*
Y3183D02*
X1580Y3217D01*
Y3250D02*
Y3283D01*
Y3267D01*
X1480D01*
X1497Y3250D01*
X1580Y3400D02*
Y3333D01*
X1513Y3400D01*
X1497D01*
X1480Y3383D01*
Y3350D01*
X1497Y3333D01*
X1580Y2850D02*
X1480D01*
Y2900D01*
X1497Y2917D01*
X1530D01*
X1547Y2900D01*
Y2850D01*
Y2883D02*
X1580Y2917D01*
Y2950D02*
Y2983D01*
Y2967D01*
X1480D01*
X1497Y2950D01*
X1580Y3033D02*
Y3067D01*
Y3050D01*
X1480D01*
X1497Y3033D01*
X1817Y2617D02*
X1800Y2600D01*
Y2567D01*
X1817Y2550D01*
X1883D01*
X1900Y2567D01*
Y2600D01*
X1883Y2617D01*
X1900Y2650D02*
Y2683D01*
Y2667D01*
X1800D01*
X1817Y2650D01*
X1800Y2733D02*
Y2800D01*
X1817D01*
X1883Y2733D01*
X1900D01*
Y1140D02*
X1800D01*
Y1190D01*
X1817Y1207D01*
X1850D01*
X1867Y1190D01*
Y1140D01*
Y1173D02*
X1900Y1207D01*
Y1240D02*
Y1273D01*
Y1257D01*
X1800D01*
X1817Y1240D01*
Y1323D02*
X1800Y1340D01*
Y1373D01*
X1817Y1390D01*
X1833D01*
X1850Y1373D01*
Y1357D01*
Y1373D01*
X1867Y1390D01*
X1883D01*
X1900Y1373D01*
Y1340D01*
X1883Y1323D01*
X1800Y840D02*
Y940D01*
X1850D01*
X1867Y923D01*
Y890D01*
X1850Y873D01*
X1800D01*
X1833D02*
X1867Y840D01*
X1900D02*
X1933D01*
X1917D01*
Y940D01*
X1900Y923D01*
X1983D02*
X2000Y940D01*
X2033D01*
X2050Y923D01*
Y857D01*
X2033Y840D01*
X2000D01*
X1983Y857D01*
Y923D01*
X1447Y797D02*
Y863D01*
X1430Y880D01*
X1397D01*
X1380Y863D01*
Y797D01*
X1397Y780D01*
X1430D01*
X1413Y813D02*
X1447Y780D01*
X1430D02*
X1447Y797D01*
X1480Y780D02*
X1513D01*
X1497D01*
Y880D01*
X1480Y863D01*
X1210Y1390D02*
X1110D01*
Y1440D01*
X1127Y1457D01*
X1160D01*
X1177Y1440D01*
Y1390D01*
Y1423D02*
X1210Y1457D01*
Y1490D02*
Y1523D01*
Y1507D01*
X1110D01*
X1127Y1490D01*
X1210Y1623D02*
X1110D01*
X1160Y1573D01*
Y1640D01*
X507Y1107D02*
Y1173D01*
X490Y1190D01*
X457D01*
X440Y1173D01*
Y1107D01*
X457Y1090D01*
X490D01*
X473Y1123D02*
X507Y1090D01*
X490D02*
X507Y1107D01*
X540Y1173D02*
X557Y1190D01*
X590D01*
X607Y1173D01*
Y1157D01*
X590Y1140D01*
X573D01*
X590D01*
X607Y1123D01*
Y1107D01*
X590Y1090D01*
X557D01*
X540Y1107D01*
X507Y1457D02*
Y1523D01*
X490Y1540D01*
X457D01*
X440Y1523D01*
Y1457D01*
X457Y1440D01*
X490D01*
X473Y1473D02*
X507Y1440D01*
X490D02*
X507Y1457D01*
X607Y1440D02*
X540D01*
X607Y1507D01*
Y1523D01*
X590Y1540D01*
X557D01*
X540Y1523D01*
X320Y1700D02*
Y1800D01*
X370D01*
X387Y1783D01*
Y1750D01*
X370Y1733D01*
X320D01*
X353D02*
X387Y1700D01*
X420D02*
X453D01*
X437D01*
Y1800D01*
X420Y1783D01*
X503D02*
X520Y1800D01*
X553D01*
X570Y1783D01*
Y1767D01*
X553Y1750D01*
X570Y1733D01*
Y1717D01*
X553Y1700D01*
X520D01*
X503Y1717D01*
Y1733D01*
X520Y1750D01*
X503Y1767D01*
Y1783D01*
X520Y1750D02*
X553D01*
X317Y2107D02*
Y2173D01*
X300Y2190D01*
X267D01*
X250Y2173D01*
Y2107D01*
X267Y2090D01*
X300D01*
X283Y2123D02*
X317Y2090D01*
X300D02*
X317Y2107D01*
X400Y2090D02*
Y2190D01*
X350Y2140D01*
X417D01*
X1057Y2047D02*
X1040Y2030D01*
Y1997D01*
X1057Y1980D01*
X1123D01*
X1140Y1997D01*
Y2030D01*
X1123Y2047D01*
X1140Y2080D02*
Y2113D01*
Y2097D01*
X1040D01*
X1057Y2080D01*
X1040Y2230D02*
Y2163D01*
X1090D01*
X1073Y2197D01*
Y2213D01*
X1090Y2230D01*
X1123D01*
X1140Y2213D01*
Y2180D01*
X1123Y2163D01*
X900Y2450D02*
Y2350D01*
X950D01*
X967Y2367D01*
Y2433D01*
X950Y2450D01*
X900D01*
X1067D02*
X1000D01*
Y2400D01*
X1033Y2417D01*
X1050D01*
X1067Y2400D01*
Y2367D01*
X1050Y2350D01*
X1017D01*
X1000Y2367D01*
X400Y3260D02*
Y3160D01*
X467D01*
X500D02*
X533D01*
X517D01*
Y3260D01*
X500Y3243D01*
X1117Y4193D02*
X1100Y4210D01*
X1067D01*
X1050Y4193D01*
Y4127D01*
X1067Y4110D01*
X1100D01*
X1117Y4127D01*
X1217Y4110D02*
X1150D01*
X1217Y4177D01*
Y4193D01*
X1200Y4210D01*
X1167D01*
X1150Y4193D01*
X1250D02*
X1267Y4210D01*
X1300D01*
X1317Y4193D01*
Y4127D01*
X1300Y4110D01*
X1267D01*
X1250Y4127D01*
Y4193D01*
X217Y3733D02*
X200Y3750D01*
X167D01*
X150Y3733D01*
Y3667D01*
X167Y3650D01*
X200D01*
X217Y3667D01*
X317Y3650D02*
X250D01*
X317Y3717D01*
Y3733D01*
X300Y3750D01*
X267D01*
X250Y3733D01*
X350D02*
X367Y3750D01*
X400D01*
X417Y3733D01*
Y3717D01*
X400Y3700D01*
X383D01*
X400D01*
X417Y3683D01*
Y3667D01*
X400Y3650D01*
X367D01*
X350Y3667D01*
X227Y3953D02*
X210Y3970D01*
X177D01*
X160Y3953D01*
Y3887D01*
X177Y3870D01*
X210D01*
X227Y3887D01*
X327Y3870D02*
X260D01*
X327Y3937D01*
Y3953D01*
X310Y3970D01*
X277D01*
X260Y3953D01*
X427Y3870D02*
X360D01*
X427Y3937D01*
Y3953D01*
X410Y3970D01*
X377D01*
X360Y3953D01*
X237Y4163D02*
X220Y4180D01*
X187D01*
X170Y4163D01*
Y4097D01*
X187Y4080D01*
X220D01*
X237Y4097D01*
X337Y4080D02*
X270D01*
X337Y4147D01*
Y4163D01*
X320Y4180D01*
X287D01*
X270Y4163D01*
X370Y4080D02*
X403D01*
X387D01*
Y4180D01*
X370Y4163D01*
X4880Y2990D02*
X4963D01*
X4980Y3007D01*
Y3040D01*
X4963Y3057D01*
X4880D01*
X4980Y3140D02*
X4880D01*
X4930Y3090D01*
Y3157D01*
X2630Y3240D02*
Y3340D01*
X2680D01*
X2697Y3323D01*
Y3290D01*
X2680Y3273D01*
X2630D01*
X2663D02*
X2697Y3240D01*
X2730D02*
X2763D01*
X2747D01*
Y3340D01*
X2730Y3323D01*
X2880Y3340D02*
X2847Y3323D01*
X2813Y3290D01*
Y3257D01*
X2830Y3240D01*
X2863D01*
X2880Y3257D01*
Y3273D01*
X2863Y3290D01*
X2813D01*
X6680Y2250D02*
Y2150D01*
X6730D01*
X6747Y2167D01*
Y2233D01*
X6730Y2250D01*
X6680D01*
X6780Y2233D02*
X6797Y2250D01*
X6830D01*
X6847Y2233D01*
Y2217D01*
X6830Y2200D01*
X6813D01*
X6830D01*
X6847Y2183D01*
Y2167D01*
X6830Y2150D01*
X6797D01*
X6780Y2167D01*
D11*
X4310Y2120D02*
G03*
X4310Y2120I-30J0D01*
G01*
X1930Y3400D02*
G03*
X1930Y3400I-30J0D01*
G01*
X2230Y2470D02*
G03*
X2230Y2470I-30J0D01*
G01*
X4380Y3140D02*
G03*
X4380Y3140I-30J0D01*
G01*
D12*
X4083Y2273D02*
G03*
X4083Y2273I-12J0D01*
G01*
X6918Y3212D02*
G03*
X6918Y3212I-12J0D01*
G01*
X5333Y2880D02*
G03*
X5333Y2880I-12J0D01*
G01*
X772Y1300D02*
G03*
X772Y1300I-12J0D01*
G01*
Y1660D02*
G03*
X772Y1660I-12J0D01*
G01*
X1543Y950D02*
G03*
X1543Y950I-12J0D01*
G01*
X1787Y3188D02*
G03*
X1787Y3188I-12J0D01*
G01*
X2087Y2258D02*
G03*
X2087Y2258I-12J0D01*
G01*
X4237Y2927D02*
G03*
X4237Y2927I-12J0D01*
G01*
X4333Y3883D02*
G03*
X4333Y3883I-12J0D01*
G01*
D13*
X4180Y1600D02*
X4800D01*
X4180Y2220D02*
X4800D01*
Y1600D02*
Y2220D01*
X4180Y1600D02*
Y2220D01*
X6235Y2765D02*
Y3075D01*
X6905Y2765D02*
Y3075D01*
X6235Y2765D02*
X6905D01*
X6235Y3075D02*
X6905D01*
X5170Y2910D02*
X5230D01*
X5170Y3210D02*
X5230D01*
Y2910D02*
Y3210D01*
X5170Y2910D02*
Y3210D01*
X860Y1270D02*
X920D01*
Y1190D02*
Y1270D01*
X860Y970D02*
X920D01*
Y1050D01*
X860Y1630D02*
X920D01*
Y1550D02*
Y1630D01*
X860Y1330D02*
X920D01*
Y1410D01*
X1370Y980D02*
X1430D01*
X1370D02*
Y1060D01*
Y1280D02*
X1430D01*
X1370Y1200D02*
Y1280D01*
X1800Y3300D02*
X2300D01*
X1800Y3620D02*
X2300D01*
X1800Y3300D02*
Y3620D01*
X2300Y3300D02*
Y3620D01*
X2100Y2370D02*
X2600D01*
X2100Y2690D02*
X2600D01*
X2100Y2370D02*
Y2690D01*
X2600Y2370D02*
Y2690D01*
X4250Y3040D02*
X4750D01*
X4250Y3360D02*
X4750D01*
X4250Y3040D02*
Y3360D01*
X4750Y3040D02*
Y3360D01*
X4878Y3975D02*
Y4055D01*
X4722Y3975D02*
Y4055D01*
X4097Y3980D02*
Y4060D01*
X3942Y3980D02*
Y4060D01*
X2277Y3965D02*
Y3975D01*
X2202Y3965D02*
Y3975D01*
X2450Y3553D02*
X2460D01*
X2450Y3628D02*
X2460D01*
X2455Y3403D02*
X2465D01*
X2455Y3478D02*
X2465D01*
X2502Y3075D02*
Y3085D01*
X2577Y3075D02*
Y3085D01*
X755Y1712D02*
X765D01*
X755Y1788D02*
X765D01*
X1900Y2973D02*
X1910D01*
X1900Y3048D02*
X1910D01*
X2455Y3328D02*
X2465D01*
X2455Y3253D02*
X2465D01*
X2662Y2590D02*
Y2600D01*
X2738Y2590D02*
Y2600D01*
X1188Y1200D02*
Y1210D01*
X1112Y1200D02*
Y1210D01*
X1748Y1100D02*
Y1110D01*
X1673Y1100D02*
Y1110D01*
X1623Y3250D02*
Y3260D01*
X1698Y3250D02*
Y3260D01*
X1623Y2990D02*
Y3000D01*
X1698Y2990D02*
Y3000D01*
X1915Y993D02*
X1925D01*
X1915Y1068D02*
X1925D01*
X5610Y2352D02*
X5620D01*
X5610Y2427D02*
X5620D01*
X6475Y2417D02*
X6485D01*
X6475Y2342D02*
X6485D01*
X7003Y3040D02*
Y3050D01*
X7078Y3040D02*
Y3050D01*
X4230Y2702D02*
X4240D01*
X4230Y2777D02*
X4240D01*
X4505D02*
X4515D01*
X4505Y2702D02*
X4515D01*
X7003Y3400D02*
Y3410D01*
X7078Y3400D02*
Y3410D01*
X4162Y3395D02*
Y3405D01*
X4088Y3395D02*
Y3405D01*
X4258Y3945D02*
Y3955D01*
X4183Y3945D02*
Y3955D01*
X4495Y3612D02*
X4505D01*
X4495Y3688D02*
X4505D01*
X635Y3770D02*
X705D01*
X635Y3610D02*
X705D01*
X635Y3990D02*
X705D01*
X635Y3830D02*
X705D01*
X635Y4200D02*
X705D01*
X635Y4040D02*
X705D01*
X4650Y3983D02*
Y4043D01*
X4570D02*
X4650D01*
X4350Y3983D02*
Y4043D01*
X4430D01*
D14*
X5725Y3860D02*
Y4015D01*
Y4495D02*
Y5335D01*
X790Y3575D02*
X1288D01*
X790Y2825D02*
X1288D01*
X6175Y4985D02*
Y5335D01*
X6625Y3860D02*
Y3970D01*
Y5335D01*
X6425Y3860D02*
X6625D01*
X6425D02*
Y3970D01*
X5725Y4985D02*
X6622D01*
X5725Y5335D02*
X6625D01*
X5925Y3860D02*
Y3970D01*
X5725Y3860D02*
X5925D01*
X3500Y4825D02*
X3625D01*
Y4950D01*
X5000Y4250D02*
Y4950D01*
X4500Y4250D02*
Y4950D01*
X4000Y4250D02*
Y4950D01*
X3500Y4250D02*
Y4950D01*
X5500D01*
Y4250D02*
Y4950D01*
X3500Y4250D02*
X5500D01*
X1100D02*
X2100D01*
X1100Y4950D02*
X2100D01*
X1100Y4250D02*
Y4950D01*
X1600Y4250D02*
Y4950D01*
X2100Y4250D02*
Y4950D01*
M02*
