M48
;Layer_Color=9474304
;FILE_FORMAT=4:2
METRIC,LZ
;TYPE=PLATED
T1F00S00C0.50
T2F00S00C0.60
T3F00S00C0.66
T4F00S00C1.14
T5F00S00C1.40
T6F00S00C2.50
T7F00S00C2.70
T8F00S00C3.20
%
T01
X005754Y00171
X006Y0017
X006262
X00599Y00218
X00671Y0022
X007Y00246
X007024Y0017
X00531Y0015
X00511Y00094
X00473Y00083
X00406
X00407Y00106
X00422
X00382Y00094
X00407Y00147
X00392Y00171
X00367Y00176
X00349Y00162
X00332Y001864
X0035Y00211
X00383
X00331Y00229
X00344Y00246
X0027Y00211
X002541Y00212
X00199Y00255
X00171Y00135
X00474Y00255
X00495Y00258
X00555Y00259
X00538Y0022
X00141Y00258
X00116Y0018
X00156Y00135
X00097Y00095
X0015Y00271
X001491Y003892
X001023Y004172
X00038Y00412
Y0039
X00039Y00369
X00167Y00347
X001859Y003899
X00163Y00416
X002984Y00427
X00324Y00428
X00405Y0044
X00425Y00421
X0045
X0048Y00438
X00525
X00531Y00425
X00535Y00333
X00549Y00323
X00535Y0028
X00472Y00276
X00416Y00287
X00387
X00335Y00288
X0036Y00338
X004005Y003475
X004Y00365
X00473Y00363
X00262Y00344
X0023Y00303
X002159Y002969
X00599Y00262
X007Y00263
X00704Y0036
X0066
X00616
X00582Y00394
X00561
T02
X0035Y00263
X0037
T03
X00367Y00162
Y002108
T04
X005754Y0015
X006008
X006262
X006516
X00677
X007024
X0055
X00306Y00195
Y002204
Y002458
Y002712
X003162Y0046
X002908
X002654
X0024
T05
X00135Y0046
X00185
X00375
X00425
X00475
X00525
T06
X005725Y00426
X006175Y004575
T07
X006175Y00397
T08
X007Y0005
X0005
Y0045
X007
M30
