G04*
G04 #@! TF.GenerationSoftware,Altium Limited,Altium Designer,18.1.1 (9)*
G04*
G04 Layer_Color=16711935*
%FSLAX42Y42*%
%MOMM*%
G71*
G01*
G75*
%ADD31C,1.20*%
%ADD32C,1.60*%
%ADD33C,2.40*%
G04:AMPARAMS|DCode=34|XSize=2.4mm|YSize=2.4mm|CornerRadius=0.65mm|HoleSize=0mm|Usage=FLASHONLY|Rotation=0.000|XOffset=0mm|YOffset=0mm|HoleType=Round|Shape=RoundedRectangle|*
%AMROUNDEDRECTD34*
21,1,2.40,1.10,0,0,0.0*
21,1,1.10,2.40,0,0,0.0*
1,1,1.30,0.55,-0.55*
1,1,1.30,-0.55,-0.55*
1,1,1.30,-0.55,0.55*
1,1,1.30,0.55,0.55*
%
%ADD34ROUNDEDRECTD34*%
%ADD35C,2.00*%
G04:AMPARAMS|DCode=36|XSize=2mm|YSize=2mm|CornerRadius=0.55mm|HoleSize=0mm|Usage=FLASHONLY|Rotation=0.000|XOffset=0mm|YOffset=0mm|HoleType=Round|Shape=RoundedRectangle|*
%AMROUNDEDRECTD36*
21,1,2.00,0.90,0,0,0.0*
21,1,0.90,2.00,0,0,0.0*
1,1,1.10,0.45,-0.45*
1,1,1.10,-0.45,-0.45*
1,1,1.10,-0.45,0.45*
1,1,1.10,0.45,0.45*
%
%ADD36ROUNDEDRECTD36*%
G04:AMPARAMS|DCode=37|XSize=2mm|YSize=2mm|CornerRadius=0.55mm|HoleSize=0mm|Usage=FLASHONLY|Rotation=270.000|XOffset=0mm|YOffset=0mm|HoleType=Round|Shape=RoundedRectangle|*
%AMROUNDEDRECTD37*
21,1,2.00,0.90,0,0,270.0*
21,1,0.90,2.00,0,0,270.0*
1,1,1.10,-0.45,-0.45*
1,1,1.10,-0.45,0.45*
1,1,1.10,0.45,0.45*
1,1,1.10,0.45,-0.45*
%
%ADD37ROUNDEDRECTD37*%
%ADD38O,4.80X2.00*%
%ADD39O,2.00X4.10*%
%ADD40O,4.10X2.00*%
%ADD41C,1.40*%
%ADD42R,1.40X1.40*%
%ADD43R,1.40X1.40*%
%ADD44C,4.20*%
%ADD45C,1.20*%
%ADD46C,1.45*%
D31*
X7750Y-250D02*
D03*
X-250D02*
D03*
X7750Y5250D02*
D03*
X-250D02*
D03*
D32*
X3670Y2108D02*
D03*
Y1620D02*
D03*
D33*
X1850Y4600D02*
D03*
X5250D02*
D03*
X4750D02*
D03*
X4250D02*
D03*
D34*
X1350D02*
D03*
X3750D02*
D03*
D35*
X7024Y1500D02*
D03*
X6770D02*
D03*
X6516D02*
D03*
X6262D02*
D03*
X6008D02*
D03*
X5754D02*
D03*
X2654Y4600D02*
D03*
X2908D02*
D03*
X3162D02*
D03*
X3060Y2458D02*
D03*
Y2204D02*
D03*
Y1950D02*
D03*
D36*
X5500Y1500D02*
D03*
X2400Y4600D02*
D03*
D37*
X3060Y2712D02*
D03*
D38*
X6175Y3970D02*
D03*
D39*
X5725Y4260D02*
D03*
D40*
X6175Y4575D02*
D03*
D41*
X1340Y3910D02*
D03*
X1280Y2010D02*
D03*
X3700Y2630D02*
D03*
X3500D02*
D03*
D42*
X1140Y3910D02*
D03*
D43*
X1280Y2210D02*
D03*
D44*
X7000Y500D02*
D03*
X500D02*
D03*
X7000Y4500D02*
D03*
X500D02*
D03*
D45*
X5725Y4180D02*
D03*
Y4340D02*
D03*
X6255Y4575D02*
D03*
X6095D02*
D03*
X6255Y3970D02*
D03*
X6095D02*
D03*
D46*
X2700Y2110D02*
D03*
X390Y3690D02*
D03*
X380Y3900D02*
D03*
Y4120D02*
D03*
X7024Y1700D02*
D03*
X6262D02*
D03*
X5754Y1710D02*
D03*
X6000Y1700D02*
D03*
X3600Y3380D02*
D03*
X1160Y1800D02*
D03*
X3500Y2110D02*
D03*
X3490Y1620D02*
D03*
X3670Y1760D02*
D03*
X3830Y2110D02*
D03*
X5310Y1500D02*
D03*
X1491Y3892D02*
D03*
X3240Y4280D02*
D03*
X2984Y4270D02*
D03*
X3310Y2290D02*
D03*
X3440Y2460D02*
D03*
X5250Y4380D02*
D03*
X5310Y4250D02*
D03*
X4800Y4380D02*
D03*
X4050Y4400D02*
D03*
X5820Y3940D02*
D03*
X5670D02*
D03*
X4720Y2760D02*
D03*
X3920Y1710D02*
D03*
X2620Y3440D02*
D03*
X6490Y3200D02*
D03*
Y3077D02*
D03*
X4730Y3630D02*
D03*
X2300Y3030D02*
D03*
X2541Y2120D02*
D03*
X6460Y3630D02*
D03*
X6270Y3710D02*
D03*
X6150D02*
D03*
X3870Y2870D02*
D03*
X3350Y2880D02*
D03*
X1630Y4160D02*
D03*
X4070Y1060D02*
D03*
X4220D02*
D03*
X4730Y830D02*
D03*
X4060D02*
D03*
X1859Y3899D02*
D03*
X1670Y3470D02*
D03*
X970Y950D02*
D03*
X1710Y1350D02*
D03*
X1560D02*
D03*
X5990Y2170D02*
D03*
X5550Y2590D02*
D03*
X5350Y2800D02*
D03*
Y3330D02*
D03*
X5490Y3230D02*
D03*
X1510Y2650D02*
D03*
X1390D02*
D03*
X1990Y2550D02*
D03*
X5110Y940D02*
D03*
X3820D02*
D03*
X2159Y2969D02*
D03*
X3320Y1864D02*
D03*
X4000Y3650D02*
D03*
X4005Y3475D02*
D03*
X4160Y2870D02*
D03*
X4740Y2550D02*
D03*
X6710Y2200D02*
D03*
X5380D02*
D03*
X4070Y1470D02*
D03*
X4950Y2580D02*
D03*
X4250Y4210D02*
D03*
X4500D02*
D03*
M02*
