G04*
G04 #@! TF.GenerationSoftware,Altium Limited,Altium Designer,18.1.1 (9)*
G04*
G04 Layer_Physical_Order=2*
G04 Layer_Color=16711680*
%FSLAX42Y42*%
%MOMM*%
G71*
G01*
G75*
%ADD44C,1.20*%
%ADD66C,0.40*%
%ADD67C,0.50*%
%ADD68C,1.00*%
%ADD69C,0.25*%
%ADD71C,1.00*%
%ADD72C,1.40*%
%ADD73C,2.20*%
G04:AMPARAMS|DCode=74|XSize=2.2mm|YSize=2.2mm|CornerRadius=0.55mm|HoleSize=0mm|Usage=FLASHONLY|Rotation=0.000|XOffset=0mm|YOffset=0mm|HoleType=Round|Shape=RoundedRectangle|*
%AMROUNDEDRECTD74*
21,1,2.20,1.10,0,0,0.0*
21,1,1.10,2.20,0,0,0.0*
1,1,1.10,0.55,-0.55*
1,1,1.10,-0.55,-0.55*
1,1,1.10,-0.55,0.55*
1,1,1.10,0.55,0.55*
%
%ADD74ROUNDEDRECTD74*%
%ADD75C,1.80*%
G04:AMPARAMS|DCode=76|XSize=1.8mm|YSize=1.8mm|CornerRadius=0.45mm|HoleSize=0mm|Usage=FLASHONLY|Rotation=0.000|XOffset=0mm|YOffset=0mm|HoleType=Round|Shape=RoundedRectangle|*
%AMROUNDEDRECTD76*
21,1,1.80,0.90,0,0,0.0*
21,1,0.90,1.80,0,0,0.0*
1,1,0.90,0.45,-0.45*
1,1,0.90,-0.45,-0.45*
1,1,0.90,-0.45,0.45*
1,1,0.90,0.45,0.45*
%
%ADD76ROUNDEDRECTD76*%
G04:AMPARAMS|DCode=77|XSize=1.8mm|YSize=1.8mm|CornerRadius=0.45mm|HoleSize=0mm|Usage=FLASHONLY|Rotation=270.000|XOffset=0mm|YOffset=0mm|HoleType=Round|Shape=RoundedRectangle|*
%AMROUNDEDRECTD77*
21,1,1.80,0.90,0,0,270.0*
21,1,0.90,1.80,0,0,270.0*
1,1,0.90,-0.45,-0.45*
1,1,0.90,-0.45,0.45*
1,1,0.90,0.45,0.45*
1,1,0.90,0.45,-0.45*
%
%ADD77ROUNDEDRECTD77*%
%ADD78O,4.60X1.80*%
%ADD79O,1.80X3.90*%
%ADD80O,3.90X1.80*%
%ADD81R,1.20X1.20*%
%ADD82R,1.20X1.20*%
%ADD83C,4.00*%
%ADD84C,1.25*%
%ADD85C,0.40*%
G36*
X7467Y33D02*
X33D01*
Y4967D01*
X7467D01*
Y33D01*
D02*
G37*
%LPC*%
G36*
X3805Y4736D02*
X3763D01*
Y4613D01*
X3886D01*
Y4655D01*
X3883Y4676D01*
X3875Y4696D01*
X3862Y4712D01*
X3846Y4725D01*
X3826Y4733D01*
X3805Y4736D01*
D02*
G37*
G36*
X3737D02*
X3695D01*
X3674Y4733D01*
X3654Y4725D01*
X3638Y4712D01*
X3625Y4696D01*
X3617Y4676D01*
X3614Y4655D01*
Y4613D01*
X3737D01*
Y4736D01*
D02*
G37*
G36*
X3175Y4715D02*
Y4613D01*
X3277D01*
X3274Y4630D01*
X3263Y4658D01*
X3244Y4682D01*
X3220Y4701D01*
X3192Y4712D01*
X3175Y4715D01*
D02*
G37*
G36*
X3149D02*
X3132Y4712D01*
X3104Y4701D01*
X3080Y4682D01*
X3061Y4658D01*
X3050Y4630D01*
X3047Y4613D01*
X3149D01*
Y4715D01*
D02*
G37*
G36*
X1863Y4735D02*
Y4613D01*
X1985D01*
X1982Y4635D01*
X1968Y4668D01*
X1947Y4697D01*
X1918Y4718D01*
X1885Y4732D01*
X1863Y4735D01*
D02*
G37*
G36*
X1837D02*
X1815Y4732D01*
X1782Y4718D01*
X1753Y4697D01*
X1732Y4668D01*
X1718Y4635D01*
X1715Y4613D01*
X1837D01*
Y4735D01*
D02*
G37*
G36*
X6280Y4691D02*
X6188D01*
Y4588D01*
X6395D01*
X6392Y4605D01*
X6381Y4633D01*
X6362Y4657D01*
X6338Y4676D01*
X6310Y4687D01*
X6280Y4691D01*
D02*
G37*
G36*
X6162D02*
X6070D01*
X6040Y4687D01*
X6012Y4676D01*
X5988Y4657D01*
X5969Y4633D01*
X5958Y4605D01*
X5955Y4588D01*
X6162D01*
Y4691D01*
D02*
G37*
G36*
X7013Y4725D02*
Y4513D01*
X7225D01*
X7222Y4544D01*
X7209Y4587D01*
X7188Y4626D01*
X7160Y4660D01*
X7126Y4688D01*
X7087Y4709D01*
X7044Y4722D01*
X7013Y4725D01*
D02*
G37*
G36*
X6987D02*
X6956Y4722D01*
X6913Y4709D01*
X6874Y4688D01*
X6840Y4660D01*
X6812Y4626D01*
X6791Y4587D01*
X6778Y4544D01*
X6775Y4513D01*
X6987D01*
Y4725D01*
D02*
G37*
G36*
X513D02*
Y4513D01*
X725D01*
X722Y4544D01*
X709Y4587D01*
X688Y4626D01*
X660Y4660D01*
X626Y4688D01*
X587Y4709D01*
X544Y4722D01*
X513Y4725D01*
D02*
G37*
G36*
X487D02*
X456Y4722D01*
X413Y4709D01*
X374Y4688D01*
X340Y4660D01*
X312Y4626D01*
X291Y4587D01*
X278Y4544D01*
X275Y4513D01*
X487D01*
Y4725D01*
D02*
G37*
G36*
X3277Y4587D02*
X3175D01*
Y4485D01*
X3192Y4488D01*
X3220Y4499D01*
X3244Y4518D01*
X3263Y4542D01*
X3274Y4570D01*
X3277Y4587D01*
D02*
G37*
G36*
X2908Y4711D02*
X2879Y4707D01*
X2853Y4696D01*
X2830Y4678D01*
X2812Y4655D01*
X2801Y4629D01*
X2797Y4600D01*
X2801Y4571D01*
X2812Y4545D01*
X2830Y4522D01*
X2853Y4504D01*
X2879Y4493D01*
X2908Y4489D01*
X2937Y4493D01*
X2951Y4499D01*
X3158Y4292D01*
X3157Y4280D01*
X3160Y4258D01*
X3168Y4238D01*
X3181Y4221D01*
X3198Y4208D01*
X3218Y4200D01*
X3240Y4197D01*
X3262Y4200D01*
X3282Y4208D01*
X3299Y4221D01*
X3312Y4238D01*
X3320Y4258D01*
X3323Y4280D01*
X3320Y4302D01*
X3312Y4322D01*
X3299Y4339D01*
X3282Y4352D01*
X3262Y4360D01*
X3240Y4363D01*
X3218Y4360D01*
X3209Y4357D01*
X3079Y4487D01*
X3095Y4506D01*
X3104Y4499D01*
X3132Y4488D01*
X3149Y4485D01*
Y4587D01*
X3047D01*
X3050Y4570D01*
X3061Y4542D01*
X3068Y4533D01*
X3049Y4517D01*
X3009Y4557D01*
X3015Y4571D01*
X3019Y4600D01*
X3015Y4629D01*
X3004Y4655D01*
X2986Y4678D01*
X2963Y4696D01*
X2937Y4707D01*
X2908Y4711D01*
D02*
G37*
G36*
X4250Y4731D02*
X4216Y4727D01*
X4184Y4714D01*
X4157Y4693D01*
X4136Y4666D01*
X4123Y4634D01*
X4119Y4600D01*
X4123Y4566D01*
X4134Y4541D01*
X4072Y4480D01*
X4072Y4480D01*
X4050Y4483D01*
X4028Y4480D01*
X4008Y4472D01*
X3991Y4459D01*
X3978Y4442D01*
X3970Y4422D01*
X3967Y4400D01*
X3970Y4378D01*
X3978Y4358D01*
X3991Y4341D01*
X4008Y4328D01*
X4028Y4320D01*
X4050Y4317D01*
X4072Y4320D01*
X4092Y4328D01*
X4109Y4341D01*
X4122Y4358D01*
X4130Y4378D01*
X4133Y4400D01*
X4130Y4422D01*
X4130Y4422D01*
X4191Y4484D01*
X4216Y4473D01*
X4250Y4469D01*
X4284Y4473D01*
X4316Y4486D01*
X4343Y4507D01*
X4364Y4534D01*
X4377Y4566D01*
X4381Y4600D01*
X4377Y4634D01*
X4364Y4666D01*
X4343Y4693D01*
X4316Y4714D01*
X4284Y4727D01*
X4250Y4731D01*
D02*
G37*
G36*
X1985Y4587D02*
X1863D01*
Y4465D01*
X1885Y4468D01*
X1918Y4482D01*
X1947Y4503D01*
X1968Y4532D01*
X1982Y4565D01*
X1985Y4587D01*
D02*
G37*
G36*
X1837D02*
X1715D01*
X1718Y4565D01*
X1732Y4532D01*
X1753Y4503D01*
X1782Y4482D01*
X1815Y4468D01*
X1837Y4465D01*
Y4587D01*
D02*
G37*
G36*
X3886D02*
X3763D01*
Y4464D01*
X3805D01*
X3826Y4467D01*
X3846Y4475D01*
X3862Y4488D01*
X3875Y4504D01*
X3883Y4524D01*
X3886Y4545D01*
Y4587D01*
D02*
G37*
G36*
X3737D02*
X3614D01*
Y4545D01*
X3617Y4524D01*
X3625Y4504D01*
X3638Y4488D01*
X3654Y4475D01*
X3674Y4467D01*
X3695Y4464D01*
X3737D01*
Y4587D01*
D02*
G37*
G36*
X6395Y4562D02*
X6188D01*
Y4459D01*
X6280D01*
X6310Y4463D01*
X6338Y4474D01*
X6362Y4493D01*
X6381Y4517D01*
X6392Y4545D01*
X6395Y4562D01*
D02*
G37*
G36*
X6162D02*
X5955D01*
X5958Y4545D01*
X5969Y4517D01*
X5988Y4493D01*
X6012Y4474D01*
X6040Y4463D01*
X6070Y4459D01*
X6162D01*
Y4562D01*
D02*
G37*
G36*
X4750Y4731D02*
X4716Y4727D01*
X4684Y4714D01*
X4657Y4693D01*
X4636Y4666D01*
X4623Y4634D01*
X4619Y4600D01*
X4623Y4566D01*
X4636Y4534D01*
X4657Y4507D01*
X4684Y4486D01*
X4716Y4473D01*
X4741Y4470D01*
X4749Y4445D01*
X4741Y4439D01*
X4728Y4422D01*
X4720Y4402D01*
X4717Y4380D01*
X4720Y4358D01*
X4728Y4338D01*
X4741Y4321D01*
X4758Y4308D01*
X4778Y4300D01*
X4800Y4297D01*
X4822Y4300D01*
X4842Y4308D01*
X4859Y4321D01*
X4872Y4338D01*
X4880Y4358D01*
X4883Y4380D01*
X4880Y4402D01*
X4872Y4422D01*
X4859Y4439D01*
X4842Y4452D01*
X4841Y4452D01*
Y4506D01*
X4843Y4507D01*
X4864Y4534D01*
X4877Y4566D01*
X4881Y4600D01*
X4877Y4634D01*
X4864Y4666D01*
X4843Y4693D01*
X4816Y4714D01*
X4784Y4727D01*
X4750Y4731D01*
D02*
G37*
G36*
X7225Y4487D02*
X7013D01*
Y4275D01*
X7044Y4278D01*
X7087Y4291D01*
X7126Y4312D01*
X7160Y4340D01*
X7188Y4374D01*
X7209Y4413D01*
X7222Y4456D01*
X7225Y4487D01*
D02*
G37*
G36*
X6987D02*
X6775D01*
X6778Y4456D01*
X6791Y4413D01*
X6812Y4374D01*
X6840Y4340D01*
X6874Y4312D01*
X6913Y4291D01*
X6956Y4278D01*
X6987Y4275D01*
Y4487D01*
D02*
G37*
G36*
X725D02*
X513D01*
Y4275D01*
X544Y4278D01*
X587Y4291D01*
X626Y4312D01*
X660Y4340D01*
X688Y4374D01*
X709Y4413D01*
X722Y4456D01*
X725Y4487D01*
D02*
G37*
G36*
X487D02*
X275D01*
X278Y4456D01*
X291Y4413D01*
X312Y4374D01*
X340Y4340D01*
X374Y4312D01*
X413Y4291D01*
X456Y4278D01*
X487Y4275D01*
Y4487D01*
D02*
G37*
G36*
X5738Y4480D02*
Y4273D01*
X5841D01*
Y4365D01*
X5837Y4395D01*
X5826Y4423D01*
X5807Y4447D01*
X5783Y4466D01*
X5755Y4477D01*
X5738Y4480D01*
D02*
G37*
G36*
X5712Y4480D02*
X5695Y4477D01*
X5667Y4466D01*
X5643Y4447D01*
X5624Y4423D01*
X5613Y4395D01*
X5609Y4365D01*
Y4273D01*
X5712D01*
Y4480D01*
D02*
G37*
G36*
X2654Y4711D02*
X2625Y4707D01*
X2599Y4696D01*
X2576Y4678D01*
X2558Y4655D01*
X2547Y4629D01*
X2543Y4600D01*
X2547Y4571D01*
X2558Y4545D01*
X2576Y4522D01*
X2599Y4504D01*
X2625Y4493D01*
X2654Y4489D01*
X2683Y4493D01*
X2697Y4499D01*
X2904Y4292D01*
X2904Y4292D01*
X2901Y4270D01*
X2904Y4248D01*
X2912Y4228D01*
X2925Y4211D01*
X2942Y4198D01*
X2962Y4190D01*
X2984Y4187D01*
X3006Y4190D01*
X3026Y4198D01*
X3043Y4211D01*
X3056Y4228D01*
X3064Y4248D01*
X3067Y4270D01*
X3064Y4292D01*
X3056Y4312D01*
X3043Y4329D01*
X3026Y4342D01*
X3006Y4350D01*
X2984Y4353D01*
X2962Y4350D01*
X2962Y4350D01*
X2755Y4557D01*
X2761Y4571D01*
X2765Y4600D01*
X2761Y4629D01*
X2750Y4655D01*
X2732Y4678D01*
X2709Y4696D01*
X2683Y4707D01*
X2654Y4711D01*
D02*
G37*
G36*
X5250Y4731D02*
X5216Y4727D01*
X5184Y4714D01*
X5157Y4693D01*
X5136Y4666D01*
X5123Y4634D01*
X5119Y4600D01*
X5123Y4566D01*
X5136Y4534D01*
X5157Y4507D01*
X5179Y4490D01*
Y4424D01*
X5178Y4422D01*
X5170Y4402D01*
X5167Y4380D01*
X5170Y4358D01*
X5178Y4338D01*
X5179Y4336D01*
Y4310D01*
X5182Y4292D01*
X5189Y4275D01*
X5200Y4260D01*
X5229Y4231D01*
X5230Y4228D01*
X5238Y4208D01*
X5251Y4191D01*
X5268Y4178D01*
X5288Y4170D01*
X5310Y4167D01*
X5332Y4170D01*
X5352Y4178D01*
X5369Y4191D01*
X5382Y4208D01*
X5390Y4228D01*
X5393Y4250D01*
X5390Y4272D01*
X5382Y4292D01*
X5369Y4309D01*
X5352Y4322D01*
X5343Y4326D01*
X5331Y4333D01*
X5329Y4354D01*
X5330Y4358D01*
X5333Y4380D01*
X5330Y4402D01*
X5322Y4422D01*
X5321Y4424D01*
Y4490D01*
X5343Y4507D01*
X5364Y4534D01*
X5377Y4566D01*
X5381Y4600D01*
X5377Y4634D01*
X5364Y4666D01*
X5343Y4693D01*
X5316Y4714D01*
X5284Y4727D01*
X5250Y4731D01*
D02*
G37*
G36*
X5841Y4247D02*
X5725D01*
X5609D01*
Y4155D01*
X5613Y4125D01*
X5624Y4097D01*
X5643Y4073D01*
X5667Y4054D01*
X5683Y4047D01*
X5686Y4046D01*
X5681Y4029D01*
D01*
X5679Y4022D01*
X5677Y4022D01*
X5670Y4023D01*
X5648Y4020D01*
X5628Y4012D01*
X5611Y3999D01*
X5598Y3982D01*
X5590Y3962D01*
X5587Y3940D01*
X5590Y3918D01*
X5598Y3898D01*
X5611Y3881D01*
X5628Y3868D01*
X5648Y3860D01*
X5670Y3857D01*
X5692Y3860D01*
X5712Y3868D01*
X5714Y3869D01*
X5776D01*
X5778Y3868D01*
X5798Y3860D01*
X5820Y3857D01*
X5842Y3860D01*
X5862Y3868D01*
X5864Y3869D01*
X5990D01*
X6006Y3863D01*
X6035Y3859D01*
X6315D01*
X6344Y3863D01*
X6370Y3874D01*
X6393Y3892D01*
X6411Y3915D01*
X6422Y3941D01*
X6426Y3970D01*
X6422Y3999D01*
X6411Y4025D01*
X6393Y4048D01*
X6370Y4066D01*
X6344Y4077D01*
X6315Y4081D01*
X6035D01*
X6006Y4077D01*
X5980Y4066D01*
X5957Y4048D01*
X5939Y4025D01*
X5933Y4011D01*
X5864D01*
X5862Y4012D01*
X5842Y4020D01*
X5820Y4023D01*
X5798Y4020D01*
X5778Y4012D01*
X5776Y4011D01*
X5725D01*
X5722Y4014D01*
X5723Y4022D01*
X5732Y4040D01*
X5755Y4043D01*
X5783Y4054D01*
X5807Y4073D01*
X5826Y4097D01*
X5837Y4125D01*
X5841Y4155D01*
Y4247D01*
D02*
G37*
G36*
X1225Y3995D02*
X1153D01*
Y3923D01*
X1225D01*
Y3995D01*
D02*
G37*
G36*
X1127D02*
X1055D01*
Y3923D01*
X1127D01*
Y3995D01*
D02*
G37*
G36*
X1225Y3897D02*
X1153D01*
Y3825D01*
X1225D01*
Y3897D01*
D02*
G37*
G36*
X1127D02*
X1055D01*
Y3825D01*
X1127D01*
Y3897D01*
D02*
G37*
G36*
X1405Y4731D02*
X1295D01*
X1275Y4728D01*
X1257Y4721D01*
X1242Y4708D01*
X1229Y4693D01*
X1222Y4675D01*
X1219Y4655D01*
Y4545D01*
X1222Y4525D01*
X1229Y4507D01*
X1242Y4492D01*
X1257Y4479D01*
X1269Y4474D01*
Y3949D01*
X1262Y3931D01*
X1259Y3910D01*
X1262Y3889D01*
X1270Y3870D01*
X1283Y3853D01*
X1300Y3840D01*
X1319Y3832D01*
X1322Y3832D01*
X1322Y3831D01*
X1339Y3824D01*
X1357Y3822D01*
X1448D01*
X1450Y3820D01*
X1470Y3812D01*
X1491Y3809D01*
X1513Y3812D01*
X1533Y3820D01*
X1550Y3834D01*
X1563Y3851D01*
X1572Y3871D01*
X1574Y3892D01*
X1572Y3914D01*
X1563Y3934D01*
X1550Y3951D01*
X1533Y3965D01*
X1513Y3973D01*
X1491Y3976D01*
X1470Y3973D01*
X1450Y3965D01*
X1448Y3963D01*
X1411D01*
Y4470D01*
X1425Y4472D01*
X1443Y4479D01*
X1458Y4492D01*
X1471Y4507D01*
X1478Y4525D01*
X1481Y4545D01*
Y4655D01*
X1478Y4675D01*
X1471Y4693D01*
X1458Y4708D01*
X1443Y4721D01*
X1425Y4728D01*
X1405Y4731D01*
D02*
G37*
G36*
X3700Y2711D02*
X3679Y2708D01*
X3660Y2700D01*
X3643Y2687D01*
X3630Y2670D01*
X3622Y2651D01*
X3619Y2630D01*
X3622Y2609D01*
X3630Y2590D01*
X3643Y2573D01*
X3660Y2560D01*
X3679Y2552D01*
X3700Y2549D01*
X3721Y2552D01*
X3740Y2560D01*
X3757Y2573D01*
X3770Y2590D01*
X3778Y2609D01*
X3781Y2630D01*
X3778Y2651D01*
X3770Y2670D01*
X3757Y2687D01*
X3740Y2700D01*
X3721Y2708D01*
X3700Y2711D01*
D02*
G37*
G36*
X3500D02*
X3479Y2708D01*
X3460Y2700D01*
X3443Y2687D01*
X3430Y2670D01*
X3422Y2651D01*
X3419Y2630D01*
X3422Y2609D01*
X3430Y2590D01*
X3443Y2573D01*
X3451Y2567D01*
X3441Y2543D01*
X3440Y2543D01*
X3418Y2540D01*
X3398Y2532D01*
X3381Y2519D01*
X3368Y2502D01*
X3367Y2499D01*
X3162D01*
X3156Y2513D01*
X3138Y2536D01*
X3115Y2554D01*
X3089Y2565D01*
X3060Y2569D01*
X3031Y2565D01*
X3005Y2554D01*
X2982Y2536D01*
X2964Y2513D01*
X2953Y2487D01*
X2949Y2458D01*
X2953Y2429D01*
X2964Y2403D01*
X2982Y2380D01*
X3005Y2362D01*
X3031Y2351D01*
X3060Y2347D01*
X3089Y2351D01*
X3115Y2362D01*
X3138Y2380D01*
X3156Y2403D01*
X3162Y2417D01*
X3369D01*
X3381Y2401D01*
X3398Y2388D01*
X3418Y2380D01*
X3440Y2377D01*
X3462Y2380D01*
X3482Y2388D01*
X3499Y2401D01*
X3512Y2418D01*
X3520Y2438D01*
X3523Y2460D01*
X3520Y2482D01*
X3512Y2502D01*
X3499Y2519D01*
X3490Y2525D01*
X3500Y2549D01*
X3500Y2549D01*
X3521Y2552D01*
X3540Y2560D01*
X3557Y2573D01*
X3570Y2590D01*
X3578Y2609D01*
X3581Y2630D01*
X3578Y2651D01*
X3570Y2670D01*
X3557Y2687D01*
X3540Y2700D01*
X3521Y2708D01*
X3500Y2711D01*
D02*
G37*
G36*
X4160Y2953D02*
X4138Y2950D01*
X4118Y2942D01*
X4101Y2929D01*
X4088Y2912D01*
X4080Y2892D01*
X4077Y2870D01*
X4080Y2848D01*
X4088Y2828D01*
X4101Y2811D01*
X4118Y2798D01*
X4138Y2790D01*
X4160Y2787D01*
X4182Y2790D01*
X4182Y2790D01*
X4451Y2521D01*
X4464Y2512D01*
X4480Y2509D01*
X4480Y2509D01*
X4668D01*
X4668Y2508D01*
X4681Y2491D01*
X4698Y2478D01*
X4718Y2470D01*
X4740Y2467D01*
X4762Y2470D01*
X4782Y2478D01*
X4799Y2491D01*
X4812Y2508D01*
X4820Y2528D01*
X4823Y2550D01*
X4820Y2572D01*
X4812Y2592D01*
X4799Y2609D01*
X4782Y2622D01*
X4762Y2630D01*
X4740Y2633D01*
X4718Y2630D01*
X4698Y2622D01*
X4681Y2609D01*
X4668Y2592D01*
X4668Y2591D01*
X4497D01*
X4240Y2848D01*
X4240Y2848D01*
X4243Y2870D01*
X4240Y2892D01*
X4232Y2912D01*
X4219Y2929D01*
X4202Y2942D01*
X4182Y2950D01*
X4160Y2953D01*
D02*
G37*
G36*
X3310Y2373D02*
X3288Y2370D01*
X3268Y2362D01*
X3251Y2349D01*
X3238Y2332D01*
X3238Y2331D01*
X3146D01*
X3146Y2331D01*
X3130Y2328D01*
X3117Y2319D01*
X3117Y2319D01*
X3103Y2305D01*
X3089Y2311D01*
X3060Y2315D01*
X3031Y2311D01*
X3005Y2300D01*
X2982Y2282D01*
X2964Y2259D01*
X2953Y2233D01*
X2949Y2204D01*
X2953Y2175D01*
X2964Y2149D01*
X2982Y2126D01*
X3005Y2108D01*
X3031Y2097D01*
X3060Y2093D01*
X3089Y2097D01*
X3115Y2108D01*
X3138Y2126D01*
X3156Y2149D01*
X3167Y2175D01*
X3171Y2204D01*
X3168Y2224D01*
X3181Y2244D01*
X3187Y2249D01*
X3238D01*
X3238Y2248D01*
X3251Y2231D01*
X3268Y2218D01*
X3288Y2210D01*
X3310Y2207D01*
X3332Y2210D01*
X3352Y2218D01*
X3369Y2231D01*
X3382Y2248D01*
X3390Y2268D01*
X3393Y2290D01*
X3390Y2312D01*
X3382Y2332D01*
X3369Y2349D01*
X3352Y2362D01*
X3332Y2370D01*
X3310Y2373D01*
D02*
G37*
G36*
X1365Y2295D02*
X1293D01*
Y2223D01*
X1365D01*
Y2295D01*
D02*
G37*
G36*
X1267D02*
X1195D01*
Y2223D01*
X1267D01*
Y2295D01*
D02*
G37*
G36*
X3670Y2199D02*
X3647Y2196D01*
X3625Y2187D01*
X3606Y2172D01*
X3596Y2159D01*
X3589Y2157D01*
X3576Y2157D01*
X3567Y2159D01*
X3559Y2169D01*
X3542Y2182D01*
X3522Y2190D01*
X3500Y2193D01*
X3478Y2190D01*
X3458Y2182D01*
X3441Y2169D01*
X3428Y2152D01*
X3420Y2132D01*
X3417Y2110D01*
X3420Y2088D01*
X3428Y2068D01*
X3441Y2051D01*
X3458Y2038D01*
X3478Y2030D01*
X3500Y2027D01*
X3522Y2030D01*
X3542Y2038D01*
X3559Y2051D01*
X3566Y2061D01*
X3577Y2062D01*
X3593Y2060D01*
X3606Y2044D01*
X3625Y2029D01*
X3647Y2020D01*
X3670Y2017D01*
X3693Y2020D01*
X3715Y2029D01*
X3734Y2044D01*
X3740Y2051D01*
X3769Y2053D01*
X3771Y2052D01*
X3771Y2051D01*
X3788Y2038D01*
X3808Y2030D01*
X3830Y2027D01*
X3852Y2030D01*
X3872Y2038D01*
X3889Y2051D01*
X3902Y2068D01*
X3910Y2088D01*
X3913Y2110D01*
X3910Y2132D01*
X3902Y2152D01*
X3889Y2169D01*
X3872Y2182D01*
X3852Y2190D01*
X3830Y2193D01*
X3808Y2190D01*
X3788Y2182D01*
X3771Y2169D01*
X3769Y2166D01*
X3738Y2167D01*
X3734Y2172D01*
X3715Y2187D01*
X3693Y2196D01*
X3670Y2199D01*
D02*
G37*
G36*
X1365Y2197D02*
X1293D01*
Y2125D01*
X1365D01*
Y2197D01*
D02*
G37*
G36*
X1267D02*
X1195D01*
Y2125D01*
X1267D01*
Y2197D01*
D02*
G37*
G36*
X1859Y3983D02*
X1838Y3980D01*
X1818Y3972D01*
X1801Y3958D01*
X1787Y3941D01*
X1779Y3921D01*
X1776Y3899D01*
X1779Y3878D01*
X1787Y3858D01*
X1801Y3841D01*
X1818Y3827D01*
X1838Y3819D01*
X1840Y3819D01*
X2089Y3570D01*
Y3013D01*
X2087Y3011D01*
X2079Y2991D01*
X2076Y2969D01*
X2079Y2948D01*
X2087Y2928D01*
X2089Y2926D01*
Y2081D01*
X1319D01*
X1301Y2088D01*
X1280Y2091D01*
X1259Y2088D01*
X1240Y2080D01*
X1223Y2067D01*
X1210Y2050D01*
X1203Y2033D01*
X1110Y1940D01*
X1099Y1925D01*
X1092Y1908D01*
X1089Y1890D01*
Y1844D01*
X1088Y1842D01*
X1080Y1822D01*
X1077Y1800D01*
X1080Y1778D01*
X1088Y1758D01*
X1101Y1741D01*
X1118Y1728D01*
X1138Y1720D01*
X1160Y1717D01*
X1182Y1720D01*
X1202Y1728D01*
X1219Y1741D01*
X1232Y1758D01*
X1240Y1778D01*
X1243Y1800D01*
X1240Y1822D01*
X1232Y1842D01*
X1231Y1844D01*
Y1861D01*
X1303Y1933D01*
X1319Y1939D01*
X2089D01*
Y1480D01*
X2091Y1462D01*
X2098Y1445D01*
X2110Y1430D01*
X2990Y550D01*
X3004Y539D01*
X3021Y532D01*
X3040Y529D01*
X6620D01*
X6638Y532D01*
X6655Y539D01*
X6670Y550D01*
X7270Y1150D01*
X7281Y1165D01*
X7288Y1182D01*
X7291Y1200D01*
Y1790D01*
X7288Y1808D01*
X7281Y1825D01*
X7270Y1840D01*
X7050Y2060D01*
X7035Y2071D01*
X7018Y2078D01*
X7000Y2081D01*
X6179D01*
X6071Y2189D01*
X6070Y2192D01*
X6062Y2212D01*
X6049Y2229D01*
X6032Y2242D01*
X6012Y2250D01*
X5990Y2253D01*
X5968Y2250D01*
X5948Y2242D01*
X5931Y2229D01*
X5918Y2212D01*
X5910Y2192D01*
X5907Y2170D01*
X5910Y2148D01*
X5918Y2128D01*
X5931Y2111D01*
X5948Y2098D01*
X5968Y2090D01*
X5971Y2089D01*
X6100Y1960D01*
X6115Y1949D01*
X6132Y1942D01*
X6150Y1939D01*
X6971D01*
X7149Y1761D01*
Y1550D01*
X7124Y1545D01*
X7120Y1555D01*
X7102Y1578D01*
X7079Y1596D01*
X7065Y1602D01*
Y1628D01*
X7066Y1628D01*
X7083Y1641D01*
X7096Y1658D01*
X7104Y1678D01*
X7107Y1700D01*
X7104Y1722D01*
X7096Y1742D01*
X7083Y1759D01*
X7066Y1772D01*
X7046Y1780D01*
X7024Y1783D01*
X7002Y1780D01*
X6982Y1772D01*
X6965Y1759D01*
X6952Y1742D01*
X6944Y1722D01*
X6941Y1700D01*
X6944Y1678D01*
X6952Y1658D01*
X6965Y1641D01*
X6982Y1628D01*
X6983Y1628D01*
Y1602D01*
X6969Y1596D01*
X6946Y1578D01*
X6928Y1555D01*
X6917Y1529D01*
X6913Y1500D01*
X6917Y1471D01*
X6928Y1445D01*
X6946Y1422D01*
X6969Y1404D01*
X6995Y1393D01*
X7024Y1389D01*
X7053Y1393D01*
X7079Y1404D01*
X7102Y1422D01*
X7120Y1445D01*
X7124Y1455D01*
X7149Y1450D01*
Y1229D01*
X6591Y671D01*
X3069D01*
X2230Y1509D01*
Y2926D01*
X2232Y2928D01*
X2240Y2948D01*
X2243Y2969D01*
X2240Y2991D01*
X2232Y3011D01*
X2230Y3013D01*
Y3599D01*
X2228Y3618D01*
X2221Y3635D01*
X2209Y3649D01*
X1940Y3919D01*
X1940Y3921D01*
X1932Y3941D01*
X1918Y3958D01*
X1901Y3972D01*
X1881Y3980D01*
X1859Y3983D01*
D02*
G37*
G36*
X3073Y2065D02*
Y1963D01*
X3175D01*
X3172Y1980D01*
X3161Y2008D01*
X3142Y2032D01*
X3118Y2051D01*
X3090Y2062D01*
X3073Y2065D01*
D02*
G37*
G36*
X3047Y2065D02*
X3030Y2062D01*
X3002Y2051D01*
X2978Y2032D01*
X2959Y2008D01*
X2948Y1980D01*
X2945Y1963D01*
X3047D01*
Y2065D01*
D02*
G37*
G36*
X3175Y1937D02*
X3073D01*
Y1835D01*
X3090Y1838D01*
X3118Y1849D01*
X3142Y1868D01*
X3161Y1892D01*
X3172Y1920D01*
X3175Y1937D01*
D02*
G37*
G36*
X3047D02*
X2945D01*
X2948Y1920D01*
X2959Y1892D01*
X2978Y1868D01*
X3002Y1849D01*
X3030Y1838D01*
X3047Y1835D01*
Y1937D01*
D02*
G37*
G36*
X3670Y1843D02*
X3648Y1840D01*
X3628Y1832D01*
X3611Y1819D01*
X3598Y1802D01*
X3590Y1782D01*
X3587Y1760D01*
X3590Y1738D01*
X3598Y1718D01*
X3602Y1713D01*
X3606Y1684D01*
X3591Y1665D01*
X3589Y1661D01*
X3562D01*
X3562Y1662D01*
X3549Y1679D01*
X3532Y1692D01*
X3512Y1700D01*
X3490Y1703D01*
X3468Y1700D01*
X3448Y1692D01*
X3431Y1679D01*
X3418Y1662D01*
X3410Y1642D01*
X3407Y1620D01*
X3410Y1598D01*
X3418Y1578D01*
X3431Y1561D01*
X3448Y1548D01*
X3468Y1540D01*
X3490Y1537D01*
X3512Y1540D01*
X3532Y1548D01*
X3549Y1561D01*
X3562Y1578D01*
X3562Y1579D01*
X3589D01*
X3591Y1575D01*
X3606Y1556D01*
X3625Y1541D01*
X3647Y1532D01*
X3670Y1529D01*
X3693Y1532D01*
X3715Y1541D01*
X3734Y1556D01*
X3749Y1575D01*
X3758Y1597D01*
X3761Y1620D01*
X3758Y1643D01*
X3749Y1665D01*
X3734Y1684D01*
X3738Y1713D01*
X3742Y1718D01*
X3750Y1738D01*
X3753Y1760D01*
X3750Y1782D01*
X3742Y1802D01*
X3729Y1819D01*
X3712Y1832D01*
X3692Y1840D01*
X3670Y1843D01*
D02*
G37*
G36*
X5545Y1611D02*
X5455D01*
X5438Y1608D01*
X5422Y1602D01*
X5409Y1591D01*
X5398Y1578D01*
X5394Y1567D01*
X5376Y1561D01*
X5366Y1561D01*
X5352Y1572D01*
X5332Y1580D01*
X5310Y1583D01*
X5288Y1580D01*
X5268Y1572D01*
X5251Y1559D01*
X5238Y1542D01*
X5230Y1522D01*
X5227Y1500D01*
X5230Y1478D01*
X5238Y1458D01*
X5251Y1441D01*
X5268Y1428D01*
X5288Y1420D01*
X5310Y1417D01*
X5332Y1420D01*
X5352Y1428D01*
X5366Y1439D01*
X5376Y1439D01*
X5394Y1433D01*
X5398Y1422D01*
X5409Y1409D01*
X5422Y1398D01*
X5438Y1392D01*
X5455Y1389D01*
X5545D01*
X5562Y1392D01*
X5578Y1398D01*
X5591Y1409D01*
X5602Y1422D01*
X5608Y1438D01*
X5611Y1455D01*
Y1545D01*
X5608Y1562D01*
X5602Y1578D01*
X5591Y1591D01*
X5578Y1602D01*
X5562Y1608D01*
X5545Y1611D01*
D02*
G37*
G36*
X2445Y4711D02*
X2355D01*
X2338Y4708D01*
X2322Y4702D01*
X2309Y4691D01*
X2298Y4678D01*
X2292Y4662D01*
X2289Y4645D01*
Y4555D01*
X2292Y4538D01*
X2298Y4522D01*
X2309Y4509D01*
X2322Y4498D01*
X2338Y4492D01*
X2354Y4490D01*
Y4180D01*
X2358Y4162D01*
X2368Y4148D01*
X3014Y3501D01*
Y2822D01*
X2998Y2820D01*
X2982Y2814D01*
X2969Y2803D01*
X2958Y2790D01*
X2952Y2774D01*
X2949Y2757D01*
Y2667D01*
X2952Y2650D01*
X2958Y2634D01*
X2969Y2621D01*
X2982Y2610D01*
X2998Y2604D01*
X3015Y2601D01*
X3105D01*
X3122Y2604D01*
X3138Y2610D01*
X3151Y2621D01*
X3162Y2634D01*
X3168Y2650D01*
X3171Y2667D01*
Y2757D01*
X3168Y2774D01*
X3162Y2790D01*
X3151Y2803D01*
X3138Y2814D01*
X3122Y2820D01*
X3106Y2822D01*
Y3474D01*
X3922D01*
X3925Y3453D01*
X3933Y3433D01*
X3946Y3416D01*
X3963Y3403D01*
X3983Y3395D01*
X4005Y3392D01*
X4027Y3395D01*
X4047Y3403D01*
X4064Y3416D01*
X4074Y3429D01*
X4206D01*
X4904Y2731D01*
Y2649D01*
X4891Y2639D01*
X4878Y2622D01*
X4870Y2602D01*
X4867Y2580D01*
X4870Y2558D01*
X4878Y2538D01*
X4891Y2521D01*
X4904Y2511D01*
Y1516D01*
X4139D01*
X4129Y1529D01*
X4112Y1542D01*
X4092Y1550D01*
X4070Y1553D01*
X4048Y1550D01*
X4028Y1542D01*
X4011Y1529D01*
X3998Y1512D01*
X3990Y1492D01*
X3987Y1470D01*
X3990Y1448D01*
X3998Y1428D01*
X4011Y1411D01*
X4028Y1398D01*
X4048Y1390D01*
X4070Y1387D01*
X4092Y1390D01*
X4112Y1398D01*
X4129Y1411D01*
X4139Y1424D01*
X4931D01*
X5088Y1268D01*
X5102Y1258D01*
X5120Y1254D01*
X6480D01*
X6498Y1258D01*
X6512Y1268D01*
X6548Y1304D01*
X6558Y1318D01*
X6562Y1336D01*
Y1400D01*
X6571Y1404D01*
X6594Y1422D01*
X6612Y1445D01*
X6623Y1471D01*
X6627Y1500D01*
X6623Y1529D01*
X6612Y1555D01*
X6594Y1578D01*
X6571Y1596D01*
X6545Y1607D01*
X6516Y1611D01*
X6487Y1607D01*
X6461Y1596D01*
X6438Y1578D01*
X6420Y1555D01*
X6409Y1529D01*
X6405Y1500D01*
X6409Y1471D01*
X6420Y1445D01*
X6438Y1422D01*
X6461Y1404D01*
X6470Y1400D01*
Y1355D01*
X6461Y1346D01*
X5139D01*
X4996Y1489D01*
Y2511D01*
X5009Y2521D01*
X5022Y2538D01*
X5030Y2558D01*
X5033Y2580D01*
X5030Y2602D01*
X5022Y2622D01*
X5009Y2639D01*
X4996Y2649D01*
Y2750D01*
X4992Y2768D01*
X4982Y2782D01*
X4257Y3507D01*
X4243Y3517D01*
X4225Y3521D01*
X4074D01*
X4064Y3534D01*
X4047Y3547D01*
X4027Y3555D01*
X4005Y3558D01*
X3987Y3556D01*
X3978Y3562D01*
X3960Y3566D01*
X3079D01*
X2446Y4199D01*
Y4490D01*
X2462Y4492D01*
X2478Y4498D01*
X2491Y4509D01*
X2502Y4522D01*
X2508Y4538D01*
X2511Y4555D01*
Y4645D01*
X2508Y4662D01*
X2502Y4678D01*
X2491Y4691D01*
X2478Y4702D01*
X2462Y4708D01*
X2445Y4711D01*
D02*
G37*
G36*
X6783Y1615D02*
Y1513D01*
X6885D01*
X6882Y1530D01*
X6871Y1558D01*
X6852Y1582D01*
X6828Y1601D01*
X6800Y1612D01*
X6783Y1615D01*
D02*
G37*
G36*
X6757D02*
X6740Y1612D01*
X6712Y1601D01*
X6688Y1582D01*
X6669Y1558D01*
X6658Y1530D01*
X6655Y1513D01*
X6757D01*
Y1615D01*
D02*
G37*
G36*
X6262Y1783D02*
X6240Y1780D01*
X6220Y1772D01*
X6203Y1759D01*
X6190Y1742D01*
X6182Y1722D01*
X6179Y1700D01*
X6182Y1678D01*
X6190Y1658D01*
X6203Y1641D01*
X6220Y1628D01*
X6221Y1628D01*
Y1602D01*
X6207Y1596D01*
X6184Y1578D01*
X6166Y1555D01*
X6155Y1529D01*
X6151Y1500D01*
X6155Y1471D01*
X6166Y1445D01*
X6184Y1422D01*
X6207Y1404D01*
X6233Y1393D01*
X6262Y1389D01*
X6291Y1393D01*
X6317Y1404D01*
X6340Y1422D01*
X6358Y1445D01*
X6369Y1471D01*
X6373Y1500D01*
X6369Y1529D01*
X6358Y1555D01*
X6340Y1578D01*
X6317Y1596D01*
X6303Y1602D01*
Y1628D01*
X6304Y1628D01*
X6321Y1641D01*
X6334Y1658D01*
X6342Y1678D01*
X6345Y1700D01*
X6342Y1722D01*
X6334Y1742D01*
X6321Y1759D01*
X6304Y1772D01*
X6284Y1780D01*
X6262Y1783D01*
D02*
G37*
G36*
X6000D02*
X5978Y1780D01*
X5958Y1772D01*
X5941Y1759D01*
X5928Y1742D01*
X5920Y1722D01*
X5917Y1700D01*
X5920Y1678D01*
X5928Y1658D01*
X5941Y1641D01*
X5958Y1628D01*
X5965Y1625D01*
Y1601D01*
X5953Y1596D01*
X5930Y1578D01*
X5912Y1555D01*
X5901Y1529D01*
X5897Y1500D01*
X5901Y1471D01*
X5912Y1445D01*
X5930Y1422D01*
X5953Y1404D01*
X5979Y1393D01*
X6008Y1389D01*
X6037Y1393D01*
X6063Y1404D01*
X6086Y1422D01*
X6104Y1445D01*
X6115Y1471D01*
X6119Y1500D01*
X6115Y1529D01*
X6104Y1555D01*
X6086Y1578D01*
X6063Y1596D01*
X6049Y1602D01*
Y1633D01*
X6059Y1641D01*
X6072Y1658D01*
X6080Y1678D01*
X6083Y1700D01*
X6080Y1722D01*
X6072Y1742D01*
X6059Y1759D01*
X6042Y1772D01*
X6022Y1780D01*
X6000Y1783D01*
D02*
G37*
G36*
X5754Y1793D02*
X5732Y1790D01*
X5712Y1782D01*
X5695Y1769D01*
X5682Y1752D01*
X5674Y1732D01*
X5671Y1710D01*
X5674Y1688D01*
X5682Y1668D01*
X5695Y1651D01*
X5712Y1638D01*
X5713Y1638D01*
Y1602D01*
X5699Y1596D01*
X5676Y1578D01*
X5658Y1555D01*
X5647Y1529D01*
X5643Y1500D01*
X5647Y1471D01*
X5658Y1445D01*
X5676Y1422D01*
X5699Y1404D01*
X5725Y1393D01*
X5754Y1389D01*
X5783Y1393D01*
X5809Y1404D01*
X5832Y1422D01*
X5850Y1445D01*
X5861Y1471D01*
X5865Y1500D01*
X5861Y1529D01*
X5850Y1555D01*
X5832Y1578D01*
X5809Y1596D01*
X5795Y1602D01*
Y1638D01*
X5796Y1638D01*
X5813Y1651D01*
X5826Y1668D01*
X5834Y1688D01*
X5837Y1710D01*
X5834Y1732D01*
X5826Y1752D01*
X5813Y1769D01*
X5796Y1782D01*
X5776Y1790D01*
X5754Y1793D01*
D02*
G37*
G36*
X6885Y1487D02*
X6783D01*
Y1385D01*
X6800Y1388D01*
X6828Y1399D01*
X6852Y1418D01*
X6871Y1442D01*
X6882Y1470D01*
X6885Y1487D01*
D02*
G37*
G36*
X6757D02*
X6655D01*
X6658Y1470D01*
X6669Y1442D01*
X6688Y1418D01*
X6712Y1399D01*
X6740Y1388D01*
X6757Y1385D01*
Y1487D01*
D02*
G37*
G36*
X5110Y1023D02*
X5088Y1020D01*
X5068Y1012D01*
X5051Y999D01*
X5038Y982D01*
X5038Y981D01*
X3892D01*
X3892Y982D01*
X3879Y999D01*
X3862Y1012D01*
X3842Y1020D01*
X3820Y1023D01*
X3798Y1020D01*
X3778Y1012D01*
X3761Y999D01*
X3748Y982D01*
X3740Y962D01*
X3737Y940D01*
X3740Y918D01*
X3748Y898D01*
X3761Y881D01*
X3778Y868D01*
X3798Y860D01*
X3820Y857D01*
X3842Y860D01*
X3862Y868D01*
X3879Y881D01*
X3892Y898D01*
X3892Y899D01*
X3978D01*
X3990Y874D01*
X3988Y872D01*
X3980Y852D01*
X3977Y830D01*
X3980Y808D01*
X3988Y788D01*
X4001Y771D01*
X4018Y758D01*
X4038Y750D01*
X4060Y747D01*
X4082Y750D01*
X4102Y758D01*
X4119Y771D01*
X4132Y788D01*
X4132Y789D01*
X4658D01*
X4658Y788D01*
X4671Y771D01*
X4688Y758D01*
X4708Y750D01*
X4730Y747D01*
X4752Y750D01*
X4772Y758D01*
X4789Y771D01*
X4802Y788D01*
X4810Y808D01*
X4813Y830D01*
X4810Y852D01*
X4802Y872D01*
X4800Y874D01*
X4812Y899D01*
X5038D01*
X5038Y898D01*
X5051Y881D01*
X5068Y868D01*
X5088Y860D01*
X5110Y857D01*
X5132Y860D01*
X5152Y868D01*
X5169Y881D01*
X5182Y898D01*
X5190Y918D01*
X5193Y940D01*
X5190Y962D01*
X5182Y982D01*
X5169Y999D01*
X5152Y1012D01*
X5132Y1020D01*
X5110Y1023D01*
D02*
G37*
G36*
X7013Y725D02*
Y513D01*
X7225D01*
X7222Y544D01*
X7209Y587D01*
X7188Y626D01*
X7160Y660D01*
X7126Y688D01*
X7087Y709D01*
X7044Y722D01*
X7013Y725D01*
D02*
G37*
G36*
X6987D02*
X6956Y722D01*
X6913Y709D01*
X6874Y688D01*
X6840Y660D01*
X6812Y626D01*
X6791Y587D01*
X6778Y544D01*
X6775Y513D01*
X6987D01*
Y725D01*
D02*
G37*
G36*
X513D02*
Y513D01*
X725D01*
X722Y544D01*
X709Y587D01*
X688Y626D01*
X660Y660D01*
X626Y688D01*
X587Y709D01*
X544Y722D01*
X513Y725D01*
D02*
G37*
G36*
X487D02*
X456Y722D01*
X413Y709D01*
X374Y688D01*
X340Y660D01*
X312Y626D01*
X291Y587D01*
X278Y544D01*
X275Y513D01*
X487D01*
Y725D01*
D02*
G37*
G36*
X7225Y487D02*
X7013D01*
Y275D01*
X7044Y278D01*
X7087Y291D01*
X7126Y312D01*
X7160Y340D01*
X7188Y374D01*
X7209Y413D01*
X7222Y456D01*
X7225Y487D01*
D02*
G37*
G36*
X6987D02*
X6775D01*
X6778Y456D01*
X6791Y413D01*
X6812Y374D01*
X6840Y340D01*
X6874Y312D01*
X6913Y291D01*
X6956Y278D01*
X6987Y275D01*
Y487D01*
D02*
G37*
G36*
X725D02*
X513D01*
Y275D01*
X544Y278D01*
X587Y291D01*
X626Y312D01*
X660Y340D01*
X688Y374D01*
X709Y413D01*
X722Y456D01*
X725Y487D01*
D02*
G37*
G36*
X487D02*
X275D01*
X278Y456D01*
X291Y413D01*
X312Y374D01*
X340Y340D01*
X374Y312D01*
X413Y291D01*
X456Y278D01*
X487Y275D01*
Y487D01*
D02*
G37*
%LPD*%
D44*
X1340Y3910D02*
D03*
X1280Y2010D02*
D03*
X3700Y2630D02*
D03*
X3500D02*
D03*
D66*
X3670Y2108D02*
X3828D01*
X3500D02*
X3670D01*
X3490Y1620D02*
X3670D01*
Y1750D01*
X5310Y1500D02*
X5500D01*
X5754D02*
Y1710D01*
X6008Y1500D02*
Y1722D01*
X6262Y1500D02*
Y1728D01*
X7024Y1500D02*
Y1700D01*
X2908Y4600D02*
X3228Y4280D01*
X2654Y4600D02*
X2984Y4270D01*
X3060Y2458D02*
X3438D01*
X3146Y2290D02*
X3310D01*
X3060Y2204D02*
X3146Y2290D01*
X4750Y4600D02*
X4800Y4550D01*
Y4380D02*
Y4550D01*
X4050Y4400D02*
X4250Y4600D01*
X3820Y940D02*
X5110D01*
X4060Y830D02*
X4730D01*
X4160Y2870D02*
X4480Y2550D01*
X4740D01*
D67*
X2400Y4180D02*
X3060Y3520D01*
X2400Y4180D02*
Y4600D01*
X3960Y3520D02*
X4005Y3475D01*
X3060Y3520D02*
X3960D01*
X5120Y1300D02*
X6480D01*
X4950Y1470D02*
X5120Y1300D01*
X4950Y1470D02*
Y2580D01*
X4070Y1470D02*
X4950D01*
X6480Y1300D02*
X6516Y1336D01*
Y1500D01*
X4950Y2580D02*
Y2750D01*
X4225Y3475D02*
X4950Y2750D01*
X4005Y3475D02*
X4225D01*
X3060Y2712D02*
Y3520D01*
D68*
X1160Y1890D02*
X1280Y2010D01*
X1160Y1800D02*
Y1890D01*
X1280Y2010D02*
X2140D01*
X7220Y1200D02*
Y1790D01*
X7000Y2010D02*
X7220Y1790D01*
X6150Y2010D02*
X7000D01*
X5990Y2170D02*
X6150Y2010D01*
X1357Y3892D02*
X1491D01*
X1340Y3910D02*
X1357Y3892D01*
X1340Y3910D02*
Y4590D01*
X5250Y4310D02*
Y4380D01*
Y4310D02*
X5310Y4250D01*
X5250Y4380D02*
Y4600D01*
X5820Y3940D02*
X6145D01*
X5670D02*
X5820D01*
X3040Y600D02*
X6620D01*
X2159Y1480D02*
X3040Y600D01*
X6620D02*
X7220Y1200D01*
X2159Y1480D02*
Y2969D01*
Y3599D01*
X1859Y3899D02*
X2159Y3599D01*
D69*
X6262Y1700D02*
Y1728D01*
X6000Y1700D02*
Y1714D01*
X6008Y1722D01*
X3828Y2108D02*
X3830Y2110D01*
X3228Y4280D02*
X3240D01*
X3438Y2458D02*
X3440Y2460D01*
X6145Y3940D02*
X6175Y3970D01*
D71*
X7750Y-250D02*
D03*
X-250D02*
D03*
X7750Y5250D02*
D03*
X-280D02*
D03*
X5725Y4180D02*
D03*
Y4340D02*
D03*
X6255Y4575D02*
D03*
X6095D02*
D03*
X6255Y3970D02*
D03*
X6095D02*
D03*
D72*
X3670Y2108D02*
D03*
Y1620D02*
D03*
D73*
X1850Y4600D02*
D03*
X5250D02*
D03*
X4750D02*
D03*
X4250D02*
D03*
D74*
X1350D02*
D03*
X3750D02*
D03*
D75*
X7024Y1500D02*
D03*
X6770D02*
D03*
X6516D02*
D03*
X6262D02*
D03*
X6008D02*
D03*
X5754D02*
D03*
X2654Y4600D02*
D03*
X2908D02*
D03*
X3162D02*
D03*
X3060Y2458D02*
D03*
Y2204D02*
D03*
Y1950D02*
D03*
D76*
X5500Y1500D02*
D03*
X2400Y4600D02*
D03*
D77*
X3060Y2712D02*
D03*
D78*
X6175Y3970D02*
D03*
D79*
X5725Y4260D02*
D03*
D80*
X6175Y4575D02*
D03*
D81*
X1140Y3910D02*
D03*
D82*
X1280Y2210D02*
D03*
D83*
X7000Y500D02*
D03*
X500D02*
D03*
X7000Y4500D02*
D03*
X500D02*
D03*
D84*
X2700Y2110D02*
D03*
X390Y3690D02*
D03*
X380Y3900D02*
D03*
Y4120D02*
D03*
X7024Y1700D02*
D03*
X6262D02*
D03*
X5754Y1710D02*
D03*
X6000Y1700D02*
D03*
X3600Y3380D02*
D03*
X1160Y1800D02*
D03*
X3500Y2110D02*
D03*
X3490Y1620D02*
D03*
X3670Y1760D02*
D03*
X3830Y2110D02*
D03*
X5310Y1500D02*
D03*
X1491Y3892D02*
D03*
X3240Y4280D02*
D03*
X2984Y4270D02*
D03*
X3310Y2290D02*
D03*
X3440Y2460D02*
D03*
X5250Y4380D02*
D03*
X5310Y4250D02*
D03*
X4800Y4380D02*
D03*
X4050Y4400D02*
D03*
X5820Y3940D02*
D03*
X5670D02*
D03*
X4720Y2760D02*
D03*
X3920Y1710D02*
D03*
X2620Y3440D02*
D03*
X6490Y3200D02*
D03*
Y3077D02*
D03*
X4730Y3630D02*
D03*
X2300Y3030D02*
D03*
X2541Y2120D02*
D03*
X6460Y3630D02*
D03*
X6270Y3710D02*
D03*
X6150D02*
D03*
X3870Y2870D02*
D03*
X3350Y2880D02*
D03*
X1630Y4160D02*
D03*
X4070Y1060D02*
D03*
X4220D02*
D03*
X4730Y830D02*
D03*
X4060D02*
D03*
X1859Y3899D02*
D03*
X1670Y3470D02*
D03*
X970Y950D02*
D03*
X1710Y1350D02*
D03*
X1560D02*
D03*
X5990Y2170D02*
D03*
X5550Y2590D02*
D03*
X5350Y2800D02*
D03*
Y3330D02*
D03*
X5490Y3230D02*
D03*
X1510Y2650D02*
D03*
X1390D02*
D03*
X1990Y2550D02*
D03*
X5110Y940D02*
D03*
X3820D02*
D03*
X2159Y2969D02*
D03*
X3320Y1864D02*
D03*
X4000Y3650D02*
D03*
X4005Y3475D02*
D03*
X4160Y2870D02*
D03*
X4740Y2550D02*
D03*
X6710Y2200D02*
D03*
X5380D02*
D03*
X4070Y1470D02*
D03*
X4950Y2580D02*
D03*
X4250Y4210D02*
D03*
X4500D02*
D03*
D85*
X7024Y1700D02*
D03*
M02*
