G04*
G04 #@! TF.GenerationSoftware,Altium Limited,Altium Designer,18.1.1 (9)*
G04*
G04 Layer_Physical_Order=1*
G04 Layer_Color=255*
%FSLAX42Y42*%
%MOMM*%
G71*
G01*
G75*
%ADD12C,0.25*%
%ADD15O,0.55X1.40*%
%ADD16O,1.40X0.55*%
%ADD17R,3.25X2.15*%
%ADD18R,1.00X2.15*%
%ADD19R,1.00X0.60*%
%ADD20R,1.20X0.70*%
G04:AMPARAMS|DCode=21|XSize=1.22mm|YSize=0.45mm|CornerRadius=0.11mm|HoleSize=0mm|Usage=FLASHONLY|Rotation=270.000|XOffset=0mm|YOffset=0mm|HoleType=Round|Shape=RoundedRectangle|*
%AMROUNDEDRECTD21*
21,1,1.22,0.23,0,0,270.0*
21,1,1.00,0.45,0,0,270.0*
1,1,0.22,-0.11,-0.50*
1,1,0.22,-0.11,0.50*
1,1,0.22,0.11,0.50*
1,1,0.22,0.11,-0.50*
%
%ADD21ROUNDEDRECTD21*%
%ADD22O,0.60X1.45*%
%ADD23R,1.75X1.25*%
%ADD24R,0.95X0.60*%
%ADD25R,0.60X0.95*%
G04:AMPARAMS|DCode=26|XSize=0.86mm|YSize=1.35mm|CornerRadius=0.22mm|HoleSize=0mm|Usage=FLASHONLY|Rotation=0.000|XOffset=0mm|YOffset=0mm|HoleType=Round|Shape=RoundedRectangle|*
%AMROUNDEDRECTD26*
21,1,0.86,0.91,0,0,0.0*
21,1,0.42,1.35,0,0,0.0*
1,1,0.44,0.21,-0.46*
1,1,0.44,-0.21,-0.46*
1,1,0.44,-0.21,0.46*
1,1,0.44,0.21,0.46*
%
%ADD26ROUNDEDRECTD26*%
G04:AMPARAMS|DCode=27|XSize=2.27mm|YSize=1.65mm|CornerRadius=0.25mm|HoleSize=0mm|Usage=FLASHONLY|Rotation=180.000|XOffset=0mm|YOffset=0mm|HoleType=Round|Shape=RoundedRectangle|*
%AMROUNDEDRECTD27*
21,1,2.27,1.16,0,0,180.0*
21,1,1.78,1.65,0,0,180.0*
1,1,0.50,-0.89,0.58*
1,1,0.50,0.89,0.58*
1,1,0.50,0.89,-0.58*
1,1,0.50,-0.89,-0.58*
%
%ADD27ROUNDEDRECTD27*%
G04:AMPARAMS|DCode=28|XSize=2.27mm|YSize=1.65mm|CornerRadius=0.25mm|HoleSize=0mm|Usage=FLASHONLY|Rotation=270.000|XOffset=0mm|YOffset=0mm|HoleType=Round|Shape=RoundedRectangle|*
%AMROUNDEDRECTD28*
21,1,2.27,1.16,0,0,270.0*
21,1,1.78,1.65,0,0,270.0*
1,1,0.50,-0.58,-0.89*
1,1,0.50,-0.58,0.89*
1,1,0.50,0.58,0.89*
1,1,0.50,0.58,-0.89*
%
%ADD28ROUNDEDRECTD28*%
%ADD29R,1.30X1.80*%
%ADD30R,1.00X0.80*%
%ADD31R,0.80X1.00*%
%ADD32R,2.60X7.00*%
G04:AMPARAMS|DCode=33|XSize=2.26mm|YSize=2.62mm|CornerRadius=0.25mm|HoleSize=0mm|Usage=FLASHONLY|Rotation=0.000|XOffset=0mm|YOffset=0mm|HoleType=Round|Shape=RoundedRectangle|*
%AMROUNDEDRECTD33*
21,1,2.26,2.12,0,0,0.0*
21,1,1.76,2.62,0,0,0.0*
1,1,0.50,0.88,-1.06*
1,1,0.50,-0.88,-1.06*
1,1,0.50,-0.88,1.06*
1,1,0.50,0.88,1.06*
%
%ADD33ROUNDEDRECTD33*%
%ADD34R,0.70X1.20*%
G04:AMPARAMS|DCode=35|XSize=2.26mm|YSize=2.62mm|CornerRadius=0.25mm|HoleSize=0mm|Usage=FLASHONLY|Rotation=90.000|XOffset=0mm|YOffset=0mm|HoleType=Round|Shape=RoundedRectangle|*
%AMROUNDEDRECTD35*
21,1,2.26,2.12,0,0,90.0*
21,1,1.76,2.62,0,0,90.0*
1,1,0.50,1.06,0.88*
1,1,0.50,1.06,-0.88*
1,1,0.50,-1.06,-0.88*
1,1,0.50,-1.06,0.88*
%
%ADD35ROUNDEDRECTD35*%
G04:AMPARAMS|DCode=36|XSize=1.66mm|YSize=1.42mm|CornerRadius=0.25mm|HoleSize=0mm|Usage=FLASHONLY|Rotation=0.000|XOffset=0mm|YOffset=0mm|HoleType=Round|Shape=RoundedRectangle|*
%AMROUNDEDRECTD36*
21,1,1.66,0.92,0,0,0.0*
21,1,1.16,1.42,0,0,0.0*
1,1,0.50,0.58,-0.46*
1,1,0.50,-0.58,-0.46*
1,1,0.50,-0.58,0.46*
1,1,0.50,0.58,0.46*
%
%ADD36ROUNDEDRECTD36*%
%ADD37R,1.50X1.50*%
G04:AMPARAMS|DCode=38|XSize=1.66mm|YSize=2.42mm|CornerRadius=0.25mm|HoleSize=0mm|Usage=FLASHONLY|Rotation=0.000|XOffset=0mm|YOffset=0mm|HoleType=Round|Shape=RoundedRectangle|*
%AMROUNDEDRECTD38*
21,1,1.66,1.92,0,0,0.0*
21,1,1.16,2.42,0,0,0.0*
1,1,0.50,0.58,-0.96*
1,1,0.50,-0.58,-0.96*
1,1,0.50,-0.58,0.96*
1,1,0.50,0.58,0.96*
%
%ADD38ROUNDEDRECTD38*%
G04:AMPARAMS|DCode=39|XSize=1.66mm|YSize=2.4mm|CornerRadius=0.25mm|HoleSize=0mm|Usage=FLASHONLY|Rotation=180.000|XOffset=0mm|YOffset=0mm|HoleType=Round|Shape=RoundedRectangle|*
%AMROUNDEDRECTD39*
21,1,1.66,1.90,0,0,180.0*
21,1,1.16,2.40,0,0,180.0*
1,1,0.50,-0.58,0.95*
1,1,0.50,0.58,0.95*
1,1,0.50,0.58,-0.95*
1,1,0.50,-0.58,-0.95*
%
%ADD39ROUNDEDRECTD39*%
%ADD77C,0.40*%
%ADD78C,0.50*%
%ADD79C,1.00*%
%ADD80C,0.70*%
%ADD81C,1.06*%
%ADD82R,1.71X1.71*%
%ADD83C,1.71*%
%ADD84R,1.71X1.71*%
%ADD85O,3.90X3.00*%
%ADD86O,3.00X3.90*%
%ADD87O,4.50X3.20*%
%ADD88C,1.20*%
G04:AMPARAMS|DCode=89|XSize=2.2mm|YSize=2.2mm|CornerRadius=0.55mm|HoleSize=0mm|Usage=FLASHONLY|Rotation=0.000|XOffset=0mm|YOffset=0mm|HoleType=Round|Shape=RoundedRectangle|*
%AMROUNDEDRECTD89*
21,1,2.20,1.10,0,0,0.0*
21,1,1.10,2.20,0,0,0.0*
1,1,1.10,0.55,-0.55*
1,1,1.10,-0.55,-0.55*
1,1,1.10,-0.55,0.55*
1,1,1.10,0.55,0.55*
%
%ADD89ROUNDEDRECTD89*%
%ADD90C,2.20*%
%ADD91C,4.00*%
%ADD92C,1.25*%
G36*
X1010Y2130D02*
X860D01*
X845Y2141D01*
X828Y2148D01*
X810Y2151D01*
X560D01*
X542Y2148D01*
X525Y2141D01*
X510Y2130D01*
X180D01*
Y3570D01*
X603D01*
Y3220D01*
X912D01*
Y3570D01*
X1010D01*
Y2130D01*
D02*
G37*
G36*
X6730Y3229D02*
Y3085D01*
X6870D01*
Y3172D01*
X6948D01*
X6972Y3170D01*
Y3070D01*
X7107D01*
Y3170D01*
X7081D01*
Y3204D01*
X7096Y3229D01*
X7300D01*
Y2443D01*
X6628Y2435D01*
X6610Y2453D01*
Y2453D01*
X6500D01*
Y2434D01*
X6469Y2434D01*
X6455Y2448D01*
Y2448D01*
X6355D01*
Y2432D01*
X6160Y2430D01*
X6142Y2448D01*
Y2496D01*
X6140Y2505D01*
X6140Y2920D01*
X6143Y2925D01*
X6147Y2944D01*
Y3121D01*
X6143Y3140D01*
X6140Y3145D01*
Y3204D01*
X6270D01*
Y3085D01*
X6410D01*
Y3229D01*
X6730Y3229D01*
D02*
G37*
%LPC*%
G36*
X912Y3180D02*
X778D01*
Y2825D01*
X912D01*
Y3180D01*
D02*
G37*
G36*
X738D02*
X603D01*
Y2825D01*
X738D01*
Y3180D01*
D02*
G37*
G36*
X842Y2758D02*
X774D01*
Y2670D01*
X893D01*
Y2708D01*
X889Y2727D01*
X878Y2744D01*
X862Y2755D01*
X842Y2758D01*
D02*
G37*
G36*
X734D02*
X665D01*
X645Y2755D01*
X629Y2744D01*
X618Y2727D01*
X614Y2708D01*
Y2670D01*
X734D01*
Y2758D01*
D02*
G37*
G36*
X893Y2630D02*
X774D01*
Y2542D01*
X842D01*
X862Y2545D01*
X878Y2556D01*
X889Y2573D01*
X893Y2592D01*
Y2630D01*
D02*
G37*
G36*
X734D02*
X614D01*
Y2592D01*
X618Y2573D01*
X629Y2556D01*
X645Y2545D01*
X665Y2542D01*
X734D01*
Y2630D01*
D02*
G37*
G36*
X7113Y3025D02*
X7053D01*
Y2983D01*
X7113D01*
Y3025D01*
D02*
G37*
G36*
X7027D02*
X6967D01*
Y2983D01*
X7027D01*
Y3025D01*
D02*
G37*
G36*
X7113Y2957D02*
X7053D01*
Y2915D01*
X7113D01*
Y2957D01*
D02*
G37*
G36*
X7027D02*
X6967D01*
Y2915D01*
X7027D01*
Y2957D01*
D02*
G37*
%LPD*%
D12*
X845Y1385D02*
X850Y1390D01*
X835Y1750D02*
X850Y1735D01*
X748Y1025D02*
X755D01*
X1160Y1730D02*
X1170Y1740D01*
X7038Y3212D02*
X7040Y3210D01*
X5747Y3600D02*
X5767Y3580D01*
X6292Y3260D02*
X6340Y3212D01*
X685Y1750D02*
X700D01*
X660Y2110D02*
X682Y2088D01*
X618Y2067D02*
X660Y2110D01*
X553Y2073D02*
X560Y2080D01*
X2540Y3005D02*
X2541Y3005D01*
D15*
X4210Y2330D02*
D03*
X4290D02*
D03*
X4370D02*
D03*
X4450D02*
D03*
X4530D02*
D03*
X4610D02*
D03*
X4690D02*
D03*
X4770D02*
D03*
Y1490D02*
D03*
X4690D02*
D03*
X4610D02*
D03*
X4530D02*
D03*
X4450D02*
D03*
X4370D02*
D03*
X4290D02*
D03*
X4210D02*
D03*
D16*
X4910Y2190D02*
D03*
Y2110D02*
D03*
Y2030D02*
D03*
Y1950D02*
D03*
Y1870D02*
D03*
Y1790D02*
D03*
Y1710D02*
D03*
Y1630D02*
D03*
X4070D02*
D03*
Y1710D02*
D03*
Y1790D02*
D03*
Y1870D02*
D03*
Y1950D02*
D03*
Y2030D02*
D03*
Y2110D02*
D03*
Y2190D02*
D03*
D17*
X6570Y2627D02*
D03*
D18*
X6340Y3212D02*
D03*
X6570D02*
D03*
X6800D02*
D03*
D19*
X5320Y2965D02*
D03*
Y3060D02*
D03*
Y3155D02*
D03*
X5080D02*
D03*
Y2965D02*
D03*
D20*
X748Y1215D02*
D03*
Y1025D02*
D03*
X952Y1120D02*
D03*
X748Y1575D02*
D03*
Y1385D02*
D03*
X952Y1480D02*
D03*
X1542Y1035D02*
D03*
Y1225D02*
D03*
X1338Y1130D02*
D03*
D21*
X553Y1918D02*
D03*
X618D02*
D03*
X682D02*
D03*
X747D02*
D03*
Y2342D02*
D03*
X682D02*
D03*
X618D02*
D03*
X553D02*
D03*
D22*
X1859Y3188D02*
D03*
X1986D02*
D03*
X2114D02*
D03*
X2241D02*
D03*
X1859Y3733D02*
D03*
X1986D02*
D03*
X2114D02*
D03*
X2241D02*
D03*
X2159Y2258D02*
D03*
X2286D02*
D03*
X2414D02*
D03*
X2541D02*
D03*
X2159Y2802D02*
D03*
X2286D02*
D03*
X2414D02*
D03*
X2541D02*
D03*
X4310Y2927D02*
D03*
X4437D02*
D03*
X4563D02*
D03*
X4690D02*
D03*
X4310Y3472D02*
D03*
X4437D02*
D03*
X4563D02*
D03*
X4690D02*
D03*
D23*
X4800Y4155D02*
D03*
Y3875D02*
D03*
X4020Y4160D02*
D03*
Y3880D02*
D03*
D24*
X2240Y4045D02*
D03*
Y3895D02*
D03*
X2540Y3005D02*
D03*
Y3155D02*
D03*
X2700Y2520D02*
D03*
Y2670D02*
D03*
X1150Y1280D02*
D03*
Y1130D02*
D03*
X1710Y1180D02*
D03*
Y1030D02*
D03*
X1660Y3180D02*
D03*
Y3330D02*
D03*
Y2920D02*
D03*
Y3070D02*
D03*
X7040Y2970D02*
D03*
Y3120D02*
D03*
Y3330D02*
D03*
Y3480D02*
D03*
X4125Y3475D02*
D03*
Y3325D02*
D03*
X4220Y4025D02*
D03*
Y3875D02*
D03*
D25*
X2530Y3590D02*
D03*
X2380D02*
D03*
X2535Y3440D02*
D03*
X2385D02*
D03*
X835Y1750D02*
D03*
X685D02*
D03*
X1980Y3010D02*
D03*
X1830D02*
D03*
X2385Y3290D02*
D03*
X2535D02*
D03*
X1995Y1030D02*
D03*
X1845D02*
D03*
X5690Y2390D02*
D03*
X5540D02*
D03*
X6405Y2380D02*
D03*
X6555D02*
D03*
X4310Y2740D02*
D03*
X4160D02*
D03*
X4435D02*
D03*
X4585D02*
D03*
X4575Y3650D02*
D03*
X4425D02*
D03*
D26*
X5694Y2200D02*
D03*
X5506D02*
D03*
X6407D02*
D03*
X6593D02*
D03*
D27*
X753Y2650D02*
D03*
X1186D02*
D03*
D28*
X5430Y3644D02*
D03*
Y4076D02*
D03*
D29*
X530Y3690D02*
D03*
X810D02*
D03*
X530Y3910D02*
D03*
X810D02*
D03*
X530Y4120D02*
D03*
X810D02*
D03*
D30*
X1670Y3735D02*
D03*
Y3600D02*
D03*
X1630Y4028D02*
D03*
Y3892D02*
D03*
X1990Y2805D02*
D03*
Y2670D02*
D03*
X2700Y2260D02*
D03*
Y2395D02*
D03*
X5490Y3100D02*
D03*
Y2965D02*
D03*
X4070Y1190D02*
D03*
Y1325D02*
D03*
X4220Y1190D02*
D03*
Y1325D02*
D03*
X3320Y1620D02*
D03*
Y1755D02*
D03*
Y2108D02*
D03*
Y1973D02*
D03*
X3860Y2630D02*
D03*
Y2765D02*
D03*
X3340Y2630D02*
D03*
Y2765D02*
D03*
D31*
X5215Y3330D02*
D03*
X5080D02*
D03*
X5210Y2800D02*
D03*
X5075D02*
D03*
X4297Y3650D02*
D03*
X4162D02*
D03*
X5633Y3260D02*
D03*
X5767D02*
D03*
D32*
X757Y3200D02*
D03*
X1320D02*
D03*
D33*
X6372Y3570D02*
D03*
X5747D02*
D03*
D34*
X4500Y4075D02*
D03*
X4405Y3872D02*
D03*
X4595D02*
D03*
D35*
X5990Y3033D02*
D03*
Y2408D02*
D03*
X1410Y2365D02*
D03*
Y1740D02*
D03*
D36*
X5383Y2590D02*
D03*
X5117D02*
D03*
D37*
X3600Y3400D02*
D03*
D38*
X1318Y3940D02*
D03*
D39*
X1023D02*
D03*
D77*
X850Y1390D02*
Y1735D01*
Y1120D02*
Y1390D01*
X748Y1385D02*
X845D01*
X755Y1025D02*
X850Y1120D01*
X7040Y3210D02*
Y3330D01*
Y3120D02*
Y3210D01*
X6800Y3212D02*
X7038D01*
X6790Y2000D02*
X7024Y1766D01*
X5410Y2000D02*
X6790D01*
X5080Y2330D02*
X5410Y2000D01*
X747Y1798D02*
Y1918D01*
X700Y1750D02*
X747Y1798D01*
X682Y1918D02*
Y2088D01*
X618Y1918D02*
Y2067D01*
X553Y1918D02*
Y2073D01*
X747Y2460D02*
Y2483D01*
X745Y2458D02*
X747Y2460D01*
X682Y2342D02*
Y2458D01*
X618Y2342D02*
Y2458D01*
X747Y2342D02*
Y2460D01*
X682Y2458D02*
X745D01*
X618D02*
X682D01*
X553D02*
X618D01*
X553Y2342D02*
Y2458D01*
X685Y1750D02*
X688Y1752D01*
X2286Y2130D02*
Y2258D01*
Y1893D02*
Y2130D01*
X2190D02*
X2286D01*
X2159Y2160D02*
X2190Y2130D01*
X7024Y1700D02*
Y1766D01*
X6070Y1930D02*
X6262Y1738D01*
Y1700D02*
Y1738D01*
X3320Y2108D02*
X4067D01*
X3670Y1750D02*
X3950Y2030D01*
X4000Y2190D02*
X4070D01*
X3960Y2230D02*
X4000Y2190D01*
X3370Y2230D02*
X3960D01*
X5310Y1500D02*
Y1690D01*
X5050Y1950D02*
X5310Y1690D01*
X4910Y1950D02*
X5050D01*
X4910Y1870D02*
X5010D01*
X4910Y1790D02*
X5000D01*
X5370Y1730D02*
X5754D01*
X5910Y1830D02*
X6008Y1732D01*
X5380Y1830D02*
X5910D01*
X5380Y1930D02*
X6070D01*
X5010Y1870D02*
X5140Y1740D01*
Y970D02*
Y1740D01*
X5110Y940D02*
X5140Y970D01*
X3200Y830D02*
X4060D01*
X1830Y2200D02*
X3200Y830D01*
X1830Y2200D02*
Y3010D01*
X3160Y720D02*
X4310D01*
X1660Y2220D02*
X3160Y720D01*
X1660Y2220D02*
Y2920D01*
X3234Y4266D02*
Y4274D01*
Y4266D02*
X3880Y3620D01*
X4160Y2850D02*
X4170Y2860D01*
X3770Y3240D02*
X4150Y2860D01*
X4160Y2850D01*
X2984Y4270D02*
X3770Y3484D01*
Y3240D02*
Y3484D01*
X3440Y2458D02*
X3490D01*
X3310Y2290D02*
X3370Y2230D01*
X3618Y2330D02*
X4210D01*
X3490Y2458D02*
X3618Y2330D01*
X4800Y4155D02*
Y4380D01*
X4787Y2657D02*
X4840Y2710D01*
X4697Y2657D02*
X4787D01*
X4530Y2490D02*
X4697Y2657D01*
X4840Y2710D02*
Y2870D01*
X5180Y2380D02*
X5540D01*
X4785Y2450D02*
X5110D01*
X4782Y2448D02*
X4785Y2450D01*
X4717Y2448D02*
X4782D01*
X4690Y2420D02*
X4717Y2448D01*
X4605Y2760D02*
X4720D01*
X4585Y2740D02*
X4605Y2760D01*
X5110Y2450D02*
X5180Y2380D01*
X5120Y2190D02*
X5380Y1930D01*
X4910Y2190D02*
X5120D01*
X4770Y2330D02*
X5080D01*
X3490Y2630D02*
X3640Y2480D01*
X3340Y2630D02*
X3490D01*
X4030Y3160D02*
X4610D01*
X3880Y3310D02*
X4030Y3160D01*
X3880Y3310D02*
Y3620D01*
Y3620D01*
X4160Y2740D02*
Y2850D01*
Y2870D01*
X4700Y2550D02*
X4740D01*
X4610Y2460D02*
X4700Y2550D01*
X4610Y2330D02*
Y2460D01*
X4435Y2740D02*
X4450Y2725D01*
Y2330D02*
Y2725D01*
X3860Y2630D02*
X4200D01*
X3700D02*
X3860D01*
X4370Y2330D02*
Y2460D01*
X4200Y2630D02*
X4370Y2460D01*
X2541Y2802D02*
Y3005D01*
X2345Y3330D02*
X2385Y3290D01*
X1660Y3330D02*
X2345D01*
X3870Y2875D02*
X3885Y2890D01*
X3870Y2905D02*
X3885Y2890D01*
X3350Y2895D02*
X3365Y2880D01*
X3350D02*
X3365D01*
X3090Y640D02*
X4360D01*
X2241Y3733D02*
Y3895D01*
X1670Y3735D02*
X1673Y3733D01*
X5372Y2590D02*
X5550D01*
X5210Y2800D02*
X5350D01*
X2120Y3580D02*
X2380D01*
X2030D02*
X2120D01*
X2114Y3587D02*
X2120Y3580D01*
X2114Y3587D02*
Y3733D01*
X1995Y1030D02*
X2700D01*
X3090Y640D01*
X1340Y4590D02*
X1350Y4600D01*
X755Y3198D02*
X757Y3200D01*
X1840Y1035D02*
X1845Y1030D01*
X730Y1575D02*
X735D01*
X4360Y640D02*
X4610Y890D01*
Y1490D01*
X4310Y720D02*
X4530Y940D01*
X1990Y2550D02*
Y2670D01*
X3250Y930D02*
X3820Y940D01*
X2286Y1893D02*
X3250Y930D01*
X4530Y940D02*
Y1490D01*
X4740Y840D02*
X5050Y1150D01*
X1980Y3181D02*
X1986Y3188D01*
X1980Y3010D02*
Y3181D01*
X2159Y2160D02*
Y2258D01*
X2465Y2395D02*
X2700D01*
X2414Y2343D02*
X2465Y2395D01*
X2414Y2258D02*
Y2343D01*
X2700Y2395D02*
Y2520D01*
X2410Y2670D02*
X2700D01*
X2330D02*
X2410D01*
X2414Y2674D01*
Y2802D01*
X2286Y2714D02*
X2330Y2670D01*
X2286Y2714D02*
Y2802D01*
X2159Y2969D02*
X2160Y2970D01*
X1990Y2805D02*
X1992Y2802D01*
X1660Y3070D02*
Y3180D01*
X1667Y3188D01*
X1859D01*
X2114D02*
Y3310D01*
X2460Y3440D02*
Y3540D01*
Y3365D02*
Y3440D01*
X2385D02*
X2460D01*
X2535Y3160D02*
X2540Y3155D01*
X2535Y3160D02*
Y3290D01*
X2460Y3365D02*
X2535Y3290D01*
X2460Y3540D02*
X2510Y3590D01*
X2530D01*
X1986Y3624D02*
X2030Y3580D01*
X1986Y3624D02*
Y3733D01*
X4610Y3160D02*
X4690Y3080D01*
Y2927D02*
Y3080D01*
X4783Y2927D02*
X4840Y2870D01*
X4690Y2927D02*
X4783D01*
X4530Y2330D02*
Y2490D01*
X3060Y2204D02*
X3074Y2190D01*
X6555Y2380D02*
Y3212D01*
X6405Y2201D02*
X6407Y2200D01*
X6405Y2201D02*
Y2380D01*
X5690Y2203D02*
X5694Y2200D01*
X5690Y2203D02*
Y2390D01*
X5070Y2030D02*
X5370Y1730D01*
X5100Y2110D02*
X5380Y1830D01*
X5050Y1150D02*
Y1740D01*
X5000Y1790D02*
X5050Y1740D01*
X4690Y2330D02*
Y2420D01*
X4910Y2110D02*
X5100D01*
X4910Y2030D02*
X5070D01*
X3320Y1620D02*
X3490D01*
X3950Y2030D02*
X4070D01*
X4067Y2108D02*
X4070Y2110D01*
X4290Y2330D02*
Y2410D01*
X4220Y2480D02*
X4290Y2410D01*
X3640Y2480D02*
X4220D01*
X4563Y2927D02*
Y3036D01*
X4540Y3060D02*
X4563Y3036D01*
X4460Y3060D02*
X4540D01*
X4437Y3036D02*
X4460Y3060D01*
X4437Y2927D02*
Y3036D01*
X4435Y2926D02*
X4437Y2927D01*
X4435Y2740D02*
Y2926D01*
X4310Y2927D02*
X4310Y2927D01*
Y2740D02*
Y2927D01*
X5080Y3155D02*
Y3330D01*
X5450Y3060D02*
X5490Y3100D01*
X5320Y3060D02*
X5450D01*
X5320Y2965D02*
X5490D01*
X5245D02*
X5320D01*
X5210Y3000D02*
X5245Y2965D01*
X5210Y3000D02*
Y3110D01*
X5255Y3155D01*
X5320D01*
X4050Y4155D02*
Y4400D01*
X4250Y4025D02*
Y4210D01*
X4797Y3872D02*
X4800Y3875D01*
X4595Y3872D02*
X4797D01*
X4053D02*
X4405D01*
X4050Y3875D02*
X4053Y3872D01*
X4575Y3555D02*
Y3650D01*
X4560Y3540D02*
X4575Y3555D01*
Y3484D02*
Y3526D01*
X4560Y3540D02*
X4575Y3526D01*
X4563Y3472D02*
X4575Y3484D01*
Y3650D02*
Y3852D01*
X4595Y3872D01*
X4425Y3650D02*
X4437Y3638D01*
Y3472D02*
Y3638D01*
X4405Y3872D02*
X4425Y3852D01*
Y3650D02*
Y3852D01*
X4125Y3325D02*
X4525D01*
X4563Y3363D01*
Y3472D01*
D78*
X1030Y800D02*
X1150Y920D01*
X680Y800D02*
X1030D01*
X1150Y920D02*
Y1130D01*
X1160Y1730D02*
Y1800D01*
Y1290D02*
Y1480D01*
Y1730D01*
X5990Y2170D02*
Y2180D01*
X7040Y3480D02*
Y3580D01*
X5490Y3230D02*
X5520Y3260D01*
X5633D01*
X2700Y2110D02*
Y2260D01*
X5080Y2638D02*
Y2965D01*
X970Y1480D02*
X1160D01*
X1150Y1280D02*
X1160Y1290D01*
X1550Y3890D02*
X1673Y3892D01*
X1825Y4045D02*
X2240D01*
X1673Y3892D02*
X1825Y4045D01*
X3920Y1710D02*
X4070D01*
X2535Y3440D02*
X2620D01*
X4690Y3590D02*
X4730Y3630D01*
X4690Y3472D02*
Y3590D01*
X2241Y3090D02*
X2300Y3030D01*
X2241Y3090D02*
Y3188D01*
X2541Y2120D02*
Y2258D01*
X3870Y2760D02*
Y2905D01*
X3350Y2750D02*
Y2895D01*
X4070Y1060D02*
Y1190D01*
X4220Y1060D02*
Y1190D01*
X1859Y3733D02*
Y3899D01*
X1670Y3470D02*
Y3600D01*
X1673Y3733D02*
X1859D01*
X970Y950D02*
Y1120D01*
X1710Y1180D02*
Y1350D01*
X1560Y1225D02*
Y1350D01*
X5215Y3330D02*
X5350D01*
X5490Y3100D02*
Y3230D01*
X4070Y1470D02*
Y1630D01*
Y1325D02*
Y1470D01*
X1560Y1035D02*
X1840D01*
X1150Y1130D02*
X1320D01*
X560Y920D02*
X680Y800D01*
X560Y920D02*
Y1220D01*
Y1500D01*
Y1220D02*
X730D01*
X560Y1500D02*
X635Y1575D01*
X730D01*
X2159Y2802D02*
Y2969D01*
X1992Y2802D02*
X2159D01*
X3320Y1755D02*
Y1973D01*
X4000Y3650D02*
X4162D01*
X4005Y3475D02*
X4125D01*
X5117Y2580D02*
X5128Y2590D01*
X4950Y2580D02*
X5117D01*
X6593Y2200D02*
X6710D01*
X5380D02*
X5506D01*
X4070Y1325D02*
X4220D01*
X5075Y2960D02*
X5080Y2965D01*
X4125Y3475D02*
X4128Y3472D01*
X4310D01*
X4297Y3650D02*
X4310Y3638D01*
Y3472D02*
Y3638D01*
X5080Y2638D02*
X5128Y2590D01*
X4500Y4075D02*
Y4210D01*
D79*
X5610Y3940D02*
X5620D01*
X5610D02*
X5820D01*
X5250Y4310D02*
X5620Y3940D01*
X1247Y2710D02*
X1500D01*
X1186Y2650D02*
X1247Y2710D01*
X1410Y2365D02*
Y2650D01*
X1090Y1800D02*
X1160D01*
X810Y2080D02*
X1090Y1800D01*
X1170Y1740D02*
X1410D01*
X560Y2080D02*
X810D01*
X755Y2548D02*
Y3198D01*
X390Y3690D02*
X530D01*
X380Y3900D02*
X520D01*
X530Y3910D01*
X400Y4120D02*
X530D01*
Y3910D02*
Y4120D01*
Y3690D02*
Y3910D01*
X1340Y3690D02*
Y3892D01*
Y3480D02*
Y3690D01*
X810D02*
X1340D01*
X810Y3910D02*
Y4120D01*
Y3690D02*
Y3910D01*
X1491Y3892D02*
X1550Y3890D01*
X1340Y3892D02*
X1491D01*
X1630Y4060D02*
Y4150D01*
X5483Y3590D02*
X5745D01*
X5430Y3644D02*
X5483Y3590D01*
X5250Y4310D02*
Y4380D01*
D80*
X1470Y2710D02*
X1500D01*
X1410Y2650D02*
X1470Y2710D01*
X6372Y3600D02*
X6580D01*
X6170D02*
X6372D01*
X5990Y2180D02*
Y2408D01*
Y2610D01*
X5767Y3260D02*
Y3580D01*
Y3260D02*
X6292D01*
X747Y2483D02*
Y2540D01*
X1023Y3940D02*
Y4172D01*
X5490Y2965D02*
X6880D01*
D81*
X3670Y2108D02*
D03*
Y1620D02*
D03*
D82*
X5500Y1500D02*
D03*
X2400Y4600D02*
D03*
D83*
X5754Y1500D02*
D03*
X6008D02*
D03*
X6262D02*
D03*
X6516D02*
D03*
X6770D02*
D03*
X7024D02*
D03*
X3162Y4600D02*
D03*
X2908D02*
D03*
X2654D02*
D03*
X3060Y1950D02*
D03*
Y2204D02*
D03*
Y2458D02*
D03*
D84*
Y2712D02*
D03*
D85*
X6175Y4575D02*
D03*
D86*
X5725Y4260D02*
D03*
D87*
X6175Y3970D02*
D03*
D88*
X3700Y2630D02*
D03*
X3500D02*
D03*
D89*
X3750Y4600D02*
D03*
X1350D02*
D03*
D90*
X5250D02*
D03*
X4750D02*
D03*
X4250D02*
D03*
X1850D02*
D03*
D91*
X7000Y500D02*
D03*
X500D02*
D03*
X7000Y4500D02*
D03*
X500D02*
D03*
D92*
X5610Y3940D02*
D03*
X7000Y2460D02*
D03*
X1410Y2580D02*
D03*
X1500Y2710D02*
D03*
X1160Y1800D02*
D03*
X6600Y3600D02*
D03*
X6160D02*
D03*
X5990Y2620D02*
D03*
Y2180D02*
D03*
X7040Y3600D02*
D03*
X7000Y2630D02*
D03*
X1023Y4172D02*
D03*
X5310Y4250D02*
D03*
X2700Y2110D02*
D03*
X390Y3690D02*
D03*
X380Y3900D02*
D03*
Y4120D02*
D03*
X7024Y1700D02*
D03*
X6262D02*
D03*
X5754Y1710D02*
D03*
X6000Y1700D02*
D03*
X3600Y3380D02*
D03*
X3500Y2110D02*
D03*
X3490Y1620D02*
D03*
X3670Y1760D02*
D03*
X3830Y2110D02*
D03*
X5310Y1500D02*
D03*
X1491Y3892D02*
D03*
X3240Y4280D02*
D03*
X2984Y4270D02*
D03*
X3310Y2290D02*
D03*
X3440Y2460D02*
D03*
X5250Y4380D02*
D03*
X4800D02*
D03*
X4050Y4400D02*
D03*
X5820Y3940D02*
D03*
X4720Y2760D02*
D03*
X3920Y1710D02*
D03*
X2620Y3440D02*
D03*
X4730Y3630D02*
D03*
X2300Y3030D02*
D03*
X2541Y2120D02*
D03*
X3870Y2870D02*
D03*
X3350Y2880D02*
D03*
X1630Y4160D02*
D03*
X4070Y1060D02*
D03*
X4220D02*
D03*
X4730Y830D02*
D03*
X4060D02*
D03*
X1859Y3899D02*
D03*
X1670Y3470D02*
D03*
X970Y950D02*
D03*
X1710Y1350D02*
D03*
X1560D02*
D03*
X5550Y2590D02*
D03*
X5350Y2800D02*
D03*
Y3330D02*
D03*
X5490Y3230D02*
D03*
X1990Y2550D02*
D03*
X5110Y940D02*
D03*
X3820D02*
D03*
X2159Y2969D02*
D03*
X3320Y1864D02*
D03*
X4000Y3650D02*
D03*
X4005Y3475D02*
D03*
X4160Y2870D02*
D03*
X4740Y2550D02*
D03*
X6710Y2200D02*
D03*
X5380D02*
D03*
X4070Y1470D02*
D03*
X4950Y2580D02*
D03*
X4250Y4210D02*
D03*
X4500D02*
D03*
M02*
