G04*
G04 #@! TF.GenerationSoftware,Altium Limited,Altium Designer,18.1.1 (9)*
G04*
G04 Layer_Physical_Order=2*
G04 Layer_Color=16711680*
%FSLAX42Y42*%
%MOMM*%
G71*
G01*
G75*
%ADD12C,0.25*%
%ADD77C,0.40*%
%ADD78C,0.50*%
%ADD79C,1.00*%
%ADD81C,1.06*%
%ADD82R,1.71X1.71*%
%ADD83C,1.71*%
%ADD84R,1.71X1.71*%
%ADD85O,3.90X3.00*%
%ADD86O,3.00X3.90*%
%ADD87O,4.50X3.20*%
%ADD88C,1.20*%
G04:AMPARAMS|DCode=89|XSize=2.2mm|YSize=2.2mm|CornerRadius=0.55mm|HoleSize=0mm|Usage=FLASHONLY|Rotation=0.000|XOffset=0mm|YOffset=0mm|HoleType=Round|Shape=RoundedRectangle|*
%AMROUNDEDRECTD89*
21,1,2.20,1.10,0,0,0.0*
21,1,1.10,2.20,0,0,0.0*
1,1,1.10,0.55,-0.55*
1,1,1.10,-0.55,-0.55*
1,1,1.10,-0.55,0.55*
1,1,1.10,0.55,0.55*
%
%ADD89ROUNDEDRECTD89*%
%ADD90C,2.20*%
%ADD91C,4.00*%
%ADD92C,1.25*%
G36*
X7461Y39D02*
X39D01*
Y4961D01*
X7461D01*
Y39D01*
D02*
G37*
%LPC*%
G36*
X3805Y4736D02*
X3763D01*
Y4613D01*
X3886D01*
Y4655D01*
X3883Y4676D01*
X3875Y4696D01*
X3862Y4712D01*
X3846Y4725D01*
X3826Y4733D01*
X3805Y4736D01*
D02*
G37*
G36*
X3737D02*
X3695D01*
X3674Y4733D01*
X3654Y4725D01*
X3638Y4712D01*
X3625Y4696D01*
X3617Y4676D01*
X3614Y4655D01*
Y4613D01*
X3737D01*
Y4736D01*
D02*
G37*
G36*
X3175Y4710D02*
Y4613D01*
X3272D01*
X3270Y4629D01*
X3259Y4656D01*
X3241Y4679D01*
X3218Y4697D01*
X3191Y4708D01*
X3175Y4710D01*
D02*
G37*
G36*
X3149D02*
X3133Y4708D01*
X3106Y4697D01*
X3083Y4679D01*
X3065Y4656D01*
X3054Y4629D01*
X3052Y4613D01*
X3149D01*
Y4710D01*
D02*
G37*
G36*
X1863Y4735D02*
Y4613D01*
X1985D01*
X1982Y4635D01*
X1968Y4668D01*
X1947Y4697D01*
X1918Y4718D01*
X1885Y4732D01*
X1863Y4735D01*
D02*
G37*
G36*
X1837D02*
X1815Y4732D01*
X1782Y4718D01*
X1753Y4697D01*
X1732Y4668D01*
X1718Y4635D01*
X1715Y4613D01*
X1837D01*
Y4735D01*
D02*
G37*
G36*
X6220Y4751D02*
X6188D01*
Y4588D01*
X6395D01*
X6393Y4609D01*
X6383Y4642D01*
X6367Y4673D01*
X6345Y4700D01*
X6318Y4722D01*
X6287Y4738D01*
X6254Y4748D01*
X6220Y4751D01*
D02*
G37*
G36*
X6162D02*
X6130D01*
X6096Y4748D01*
X6063Y4738D01*
X6032Y4722D01*
X6005Y4700D01*
X5983Y4673D01*
X5967Y4642D01*
X5957Y4609D01*
X5955Y4588D01*
X6162D01*
Y4751D01*
D02*
G37*
G36*
X2908Y4712D02*
X2879Y4708D01*
X2852Y4697D01*
X2829Y4679D01*
X2811Y4656D01*
X2800Y4629D01*
X2796Y4600D01*
X2800Y4571D01*
X2811Y4544D01*
X2812Y4542D01*
X2794Y4526D01*
X2758Y4561D01*
X2762Y4571D01*
X2766Y4600D01*
X2762Y4629D01*
X2751Y4656D01*
X2733Y4679D01*
X2710Y4697D01*
X2683Y4708D01*
X2654Y4712D01*
X2625Y4708D01*
X2598Y4697D01*
X2575Y4679D01*
X2557Y4656D01*
X2546Y4629D01*
X2542Y4600D01*
X2546Y4571D01*
X2557Y4544D01*
X2575Y4521D01*
X2598Y4503D01*
X2625Y4492D01*
X2654Y4488D01*
X2683Y4492D01*
X2693Y4496D01*
X2898Y4290D01*
X2895Y4270D01*
X2898Y4247D01*
X2907Y4226D01*
X2921Y4207D01*
X2940Y4193D01*
X2961Y4184D01*
X2984Y4181D01*
X3007Y4184D01*
X3028Y4193D01*
X3047Y4207D01*
X3061Y4226D01*
X3070Y4247D01*
X3073Y4270D01*
X3070Y4293D01*
X3061Y4314D01*
X3047Y4333D01*
X3028Y4347D01*
X3007Y4356D01*
X2984Y4359D01*
X2964Y4356D01*
X2834Y4486D01*
X2850Y4504D01*
X2852Y4503D01*
X2879Y4492D01*
X2908Y4488D01*
X2937Y4492D01*
X2947Y4496D01*
X3153Y4290D01*
X3151Y4280D01*
X3154Y4257D01*
X3163Y4236D01*
X3177Y4217D01*
X3196Y4203D01*
X3217Y4194D01*
X3240Y4191D01*
X3263Y4194D01*
X3284Y4203D01*
X3303Y4217D01*
X3317Y4236D01*
X3326Y4257D01*
X3329Y4280D01*
X3326Y4303D01*
X3317Y4324D01*
X3303Y4343D01*
X3284Y4357D01*
X3263Y4366D01*
X3240Y4369D01*
X3217Y4366D01*
X3211Y4363D01*
X3088Y4486D01*
X3104Y4504D01*
X3106Y4503D01*
X3133Y4492D01*
X3149Y4490D01*
Y4587D01*
X3052D01*
X3054Y4571D01*
X3065Y4544D01*
X3066Y4542D01*
X3048Y4526D01*
X3012Y4561D01*
X3016Y4571D01*
X3020Y4600D01*
X3016Y4629D01*
X3005Y4656D01*
X2987Y4679D01*
X2964Y4697D01*
X2937Y4708D01*
X2908Y4712D01*
D02*
G37*
G36*
X7013Y4725D02*
Y4513D01*
X7225D01*
X7222Y4544D01*
X7209Y4587D01*
X7188Y4626D01*
X7160Y4660D01*
X7126Y4688D01*
X7087Y4709D01*
X7044Y4722D01*
X7013Y4725D01*
D02*
G37*
G36*
X6987D02*
X6956Y4722D01*
X6913Y4709D01*
X6874Y4688D01*
X6840Y4660D01*
X6812Y4626D01*
X6791Y4587D01*
X6778Y4544D01*
X6775Y4513D01*
X6987D01*
Y4725D01*
D02*
G37*
G36*
X513D02*
Y4513D01*
X725D01*
X722Y4544D01*
X709Y4587D01*
X688Y4626D01*
X660Y4660D01*
X626Y4688D01*
X587Y4709D01*
X544Y4722D01*
X513Y4725D01*
D02*
G37*
G36*
X487D02*
X456Y4722D01*
X413Y4709D01*
X374Y4688D01*
X340Y4660D01*
X312Y4626D01*
X291Y4587D01*
X278Y4544D01*
X275Y4513D01*
X487D01*
Y4725D01*
D02*
G37*
G36*
X3272Y4587D02*
X3175D01*
Y4490D01*
X3191Y4492D01*
X3218Y4503D01*
X3241Y4521D01*
X3259Y4544D01*
X3270Y4571D01*
X3272Y4587D01*
D02*
G37*
G36*
X4250Y4737D02*
X4215Y4732D01*
X4182Y4718D01*
X4153Y4697D01*
X4132Y4668D01*
X4118Y4635D01*
X4113Y4600D01*
X4118Y4565D01*
X4127Y4543D01*
X4070Y4486D01*
X4050Y4489D01*
X4027Y4486D01*
X4006Y4477D01*
X3987Y4463D01*
X3973Y4444D01*
X3964Y4423D01*
X3961Y4400D01*
X3964Y4377D01*
X3973Y4356D01*
X3987Y4337D01*
X4006Y4323D01*
X4027Y4314D01*
X4050Y4311D01*
X4073Y4314D01*
X4094Y4323D01*
X4113Y4337D01*
X4127Y4356D01*
X4136Y4377D01*
X4139Y4400D01*
X4136Y4420D01*
X4193Y4477D01*
X4215Y4468D01*
X4250Y4463D01*
X4285Y4468D01*
X4318Y4482D01*
X4347Y4503D01*
X4368Y4532D01*
X4382Y4565D01*
X4387Y4600D01*
X4382Y4635D01*
X4368Y4668D01*
X4347Y4697D01*
X4318Y4718D01*
X4285Y4732D01*
X4250Y4737D01*
D02*
G37*
G36*
X1985Y4587D02*
X1863D01*
Y4465D01*
X1885Y4468D01*
X1918Y4482D01*
X1947Y4503D01*
X1968Y4532D01*
X1982Y4565D01*
X1985Y4587D01*
D02*
G37*
G36*
X1837D02*
X1715D01*
X1718Y4565D01*
X1732Y4532D01*
X1753Y4503D01*
X1782Y4482D01*
X1815Y4468D01*
X1837Y4465D01*
Y4587D01*
D02*
G37*
G36*
X3886D02*
X3763D01*
Y4464D01*
X3805D01*
X3826Y4467D01*
X3846Y4475D01*
X3862Y4488D01*
X3875Y4504D01*
X3883Y4524D01*
X3886Y4545D01*
Y4587D01*
D02*
G37*
G36*
X3737D02*
X3614D01*
Y4545D01*
X3617Y4524D01*
X3625Y4504D01*
X3638Y4488D01*
X3654Y4475D01*
X3674Y4467D01*
X3695Y4464D01*
X3737D01*
Y4587D01*
D02*
G37*
G36*
X6395Y4562D02*
X6188D01*
Y4399D01*
X6220D01*
X6254Y4402D01*
X6287Y4412D01*
X6318Y4428D01*
X6345Y4450D01*
X6367Y4477D01*
X6383Y4508D01*
X6393Y4541D01*
X6395Y4562D01*
D02*
G37*
G36*
X6162D02*
X5955D01*
X5957Y4541D01*
X5967Y4508D01*
X5983Y4477D01*
X6005Y4450D01*
X6032Y4428D01*
X6063Y4412D01*
X6096Y4402D01*
X6130Y4399D01*
X6162D01*
Y4562D01*
D02*
G37*
G36*
X4750Y4737D02*
X4715Y4732D01*
X4682Y4718D01*
X4653Y4697D01*
X4632Y4668D01*
X4618Y4635D01*
X4613Y4600D01*
X4618Y4565D01*
X4632Y4532D01*
X4653Y4503D01*
X4682Y4482D01*
X4715Y4468D01*
X4727Y4466D01*
X4734Y4451D01*
X4735Y4440D01*
X4723Y4424D01*
X4714Y4403D01*
X4711Y4380D01*
X4714Y4357D01*
X4723Y4336D01*
X4737Y4317D01*
X4756Y4303D01*
X4777Y4294D01*
X4800Y4291D01*
X4823Y4294D01*
X4844Y4303D01*
X4863Y4317D01*
X4877Y4336D01*
X4886Y4357D01*
X4889Y4380D01*
X4886Y4403D01*
X4877Y4424D01*
X4863Y4443D01*
X4846Y4455D01*
Y4503D01*
X4847Y4503D01*
X4868Y4532D01*
X4882Y4565D01*
X4887Y4600D01*
X4882Y4635D01*
X4868Y4668D01*
X4847Y4697D01*
X4818Y4718D01*
X4785Y4732D01*
X4750Y4737D01*
D02*
G37*
G36*
X7225Y4487D02*
X7013D01*
Y4275D01*
X7044Y4278D01*
X7087Y4291D01*
X7126Y4312D01*
X7160Y4340D01*
X7188Y4374D01*
X7209Y4413D01*
X7222Y4456D01*
X7225Y4487D01*
D02*
G37*
G36*
X6987D02*
X6775D01*
X6778Y4456D01*
X6791Y4413D01*
X6812Y4374D01*
X6840Y4340D01*
X6874Y4312D01*
X6913Y4291D01*
X6956Y4278D01*
X6987Y4275D01*
Y4487D01*
D02*
G37*
G36*
X725D02*
X513D01*
Y4275D01*
X544Y4278D01*
X587Y4291D01*
X626Y4312D01*
X660Y4340D01*
X688Y4374D01*
X709Y4413D01*
X722Y4456D01*
X725Y4487D01*
D02*
G37*
G36*
X487D02*
X275D01*
X278Y4456D01*
X291Y4413D01*
X312Y4374D01*
X340Y4340D01*
X374Y4312D01*
X413Y4291D01*
X456Y4278D01*
X487Y4275D01*
Y4487D01*
D02*
G37*
G36*
X5738Y4480D02*
Y4273D01*
X5901D01*
Y4305D01*
X5898Y4339D01*
X5888Y4372D01*
X5872Y4403D01*
X5850Y4430D01*
X5823Y4452D01*
X5792Y4468D01*
X5759Y4478D01*
X5738Y4480D01*
D02*
G37*
G36*
X5712Y4480D02*
X5691Y4478D01*
X5658Y4468D01*
X5627Y4452D01*
X5600Y4430D01*
X5578Y4403D01*
X5562Y4372D01*
X5552Y4339D01*
X5549Y4305D01*
Y4273D01*
X5712D01*
Y4480D01*
D02*
G37*
G36*
X5250Y4737D02*
X5215Y4732D01*
X5182Y4718D01*
X5153Y4697D01*
X5132Y4668D01*
X5118Y4635D01*
X5113Y4600D01*
X5118Y4565D01*
X5132Y4532D01*
X5153Y4503D01*
X5174Y4488D01*
Y4425D01*
X5173Y4424D01*
X5164Y4403D01*
X5161Y4380D01*
X5164Y4357D01*
X5173Y4336D01*
X5174Y4335D01*
Y4310D01*
X5177Y4290D01*
X5184Y4272D01*
X5196Y4256D01*
X5224Y4228D01*
X5224Y4227D01*
X5233Y4206D01*
X5247Y4187D01*
X5266Y4173D01*
X5287Y4164D01*
X5310Y4161D01*
X5333Y4164D01*
X5354Y4173D01*
X5373Y4187D01*
X5387Y4206D01*
X5396Y4227D01*
X5399Y4250D01*
X5396Y4273D01*
X5387Y4294D01*
X5373Y4313D01*
X5354Y4327D01*
X5333Y4336D01*
X5336Y4357D01*
X5339Y4380D01*
X5336Y4403D01*
X5327Y4424D01*
X5326Y4425D01*
Y4488D01*
X5347Y4503D01*
X5368Y4532D01*
X5382Y4565D01*
X5387Y4600D01*
X5382Y4635D01*
X5368Y4668D01*
X5347Y4697D01*
X5318Y4718D01*
X5285Y4732D01*
X5250Y4737D01*
D02*
G37*
G36*
X5901Y4247D02*
X5725D01*
X5549D01*
Y4215D01*
X5552Y4181D01*
X5562Y4148D01*
X5578Y4117D01*
X5600Y4090D01*
X5627Y4068D01*
X5658Y4052D01*
X5691Y4042D01*
X5702Y4041D01*
X5700Y4016D01*
X5655D01*
X5654Y4017D01*
X5633Y4026D01*
X5610Y4029D01*
X5587Y4026D01*
X5566Y4017D01*
X5547Y4003D01*
X5533Y3984D01*
X5524Y3963D01*
X5521Y3940D01*
X5524Y3917D01*
X5533Y3896D01*
X5547Y3877D01*
X5566Y3863D01*
X5587Y3854D01*
X5610Y3851D01*
X5633Y3854D01*
X5654Y3863D01*
X5655Y3864D01*
X5775D01*
X5776Y3863D01*
X5797Y3854D01*
X5820Y3851D01*
X5843Y3854D01*
X5864Y3863D01*
X5865Y3864D01*
X5957D01*
X5978Y3838D01*
X6006Y3815D01*
X6039Y3798D01*
X6074Y3787D01*
X6110Y3784D01*
X6240D01*
X6276Y3787D01*
X6311Y3798D01*
X6344Y3815D01*
X6372Y3838D01*
X6395Y3866D01*
X6412Y3899D01*
X6423Y3934D01*
X6426Y3970D01*
X6423Y4006D01*
X6412Y4041D01*
X6395Y4074D01*
X6372Y4102D01*
X6344Y4125D01*
X6311Y4142D01*
X6276Y4153D01*
X6240Y4156D01*
X6110D01*
X6074Y4153D01*
X6039Y4142D01*
X6006Y4125D01*
X5978Y4102D01*
X5955Y4074D01*
X5938Y4041D01*
X5930Y4016D01*
X5865D01*
X5864Y4017D01*
X5843Y4026D01*
X5820Y4029D01*
X5797Y4026D01*
X5776Y4017D01*
X5775Y4016D01*
X5750D01*
X5748Y4041D01*
X5759Y4042D01*
X5792Y4052D01*
X5823Y4068D01*
X5850Y4090D01*
X5872Y4117D01*
X5888Y4148D01*
X5898Y4181D01*
X5901Y4215D01*
Y4247D01*
D02*
G37*
G36*
X1405Y4781D02*
X1295D01*
X1262Y4777D01*
X1232Y4764D01*
X1206Y4744D01*
X1186Y4718D01*
X1173Y4688D01*
X1169Y4655D01*
Y4545D01*
X1173Y4512D01*
X1186Y4482D01*
X1206Y4456D01*
X1219Y4446D01*
Y3910D01*
X1223Y3879D01*
X1235Y3849D01*
X1254Y3824D01*
X1272Y3807D01*
X1297Y3788D01*
X1326Y3776D01*
X1357Y3771D01*
X1437D01*
X1457Y3763D01*
X1491Y3759D01*
X1526Y3763D01*
X1558Y3777D01*
X1586Y3798D01*
X1607Y3826D01*
X1620Y3858D01*
X1625Y3892D01*
X1620Y3927D01*
X1607Y3959D01*
X1586Y3987D01*
X1558Y4008D01*
X1526Y4022D01*
X1491Y4026D01*
X1480Y4025D01*
X1461Y4041D01*
Y4433D01*
X1468Y4436D01*
X1494Y4456D01*
X1514Y4482D01*
X1527Y4512D01*
X1531Y4545D01*
Y4655D01*
X1527Y4688D01*
X1514Y4718D01*
X1494Y4744D01*
X1468Y4764D01*
X1438Y4777D01*
X1405Y4781D01*
D02*
G37*
G36*
X3700Y2716D02*
X3678Y2713D01*
X3657Y2705D01*
X3639Y2691D01*
X3625Y2673D01*
X3617Y2652D01*
X3614Y2630D01*
X3617Y2608D01*
X3625Y2587D01*
X3639Y2569D01*
X3657Y2555D01*
X3678Y2547D01*
X3700Y2544D01*
X3722Y2547D01*
X3743Y2555D01*
X3761Y2569D01*
X3775Y2587D01*
X3783Y2608D01*
X3786Y2630D01*
X3783Y2652D01*
X3775Y2673D01*
X3761Y2691D01*
X3743Y2705D01*
X3722Y2713D01*
X3700Y2716D01*
D02*
G37*
G36*
X3500D02*
X3478Y2713D01*
X3457Y2705D01*
X3439Y2691D01*
X3425Y2673D01*
X3417Y2652D01*
X3414Y2630D01*
X3417Y2608D01*
X3425Y2587D01*
X3436Y2573D01*
X3432Y2557D01*
X3427Y2547D01*
X3417Y2546D01*
X3396Y2537D01*
X3377Y2523D01*
X3363Y2504D01*
X3363Y2504D01*
X3161D01*
X3157Y2514D01*
X3139Y2537D01*
X3116Y2555D01*
X3089Y2566D01*
X3060Y2570D01*
X3031Y2566D01*
X3004Y2555D01*
X2981Y2537D01*
X2963Y2514D01*
X2952Y2487D01*
X2948Y2458D01*
X2952Y2429D01*
X2963Y2402D01*
X2981Y2379D01*
X3004Y2361D01*
X3031Y2350D01*
X3060Y2346D01*
X3089Y2350D01*
X3116Y2361D01*
X3139Y2379D01*
X3157Y2402D01*
X3161Y2412D01*
X3366D01*
X3377Y2397D01*
X3396Y2383D01*
X3417Y2374D01*
X3440Y2371D01*
X3463Y2374D01*
X3484Y2383D01*
X3503Y2397D01*
X3517Y2416D01*
X3526Y2437D01*
X3529Y2460D01*
X3526Y2483D01*
X3517Y2504D01*
X3505Y2519D01*
X3508Y2533D01*
X3514Y2546D01*
X3522Y2547D01*
X3543Y2555D01*
X3561Y2569D01*
X3575Y2587D01*
X3583Y2608D01*
X3586Y2630D01*
X3583Y2652D01*
X3575Y2673D01*
X3561Y2691D01*
X3543Y2705D01*
X3522Y2713D01*
X3500Y2716D01*
D02*
G37*
G36*
X4160Y2959D02*
X4137Y2956D01*
X4116Y2947D01*
X4097Y2933D01*
X4083Y2914D01*
X4074Y2893D01*
X4071Y2870D01*
X4074Y2847D01*
X4083Y2826D01*
X4097Y2807D01*
X4116Y2793D01*
X4137Y2784D01*
X4160Y2781D01*
X4180Y2784D01*
X4447Y2517D01*
X4462Y2507D01*
X4480Y2504D01*
X4480Y2504D01*
X4665D01*
X4677Y2487D01*
X4696Y2473D01*
X4717Y2464D01*
X4740Y2461D01*
X4763Y2464D01*
X4784Y2473D01*
X4803Y2487D01*
X4817Y2506D01*
X4826Y2527D01*
X4829Y2550D01*
X4826Y2573D01*
X4817Y2594D01*
X4803Y2613D01*
X4784Y2627D01*
X4763Y2636D01*
X4740Y2639D01*
X4717Y2636D01*
X4696Y2627D01*
X4677Y2613D01*
X4665Y2596D01*
X4499D01*
X4246Y2850D01*
X4249Y2870D01*
X4246Y2893D01*
X4237Y2914D01*
X4223Y2933D01*
X4204Y2947D01*
X4183Y2956D01*
X4160Y2959D01*
D02*
G37*
G36*
X3310Y2379D02*
X3287Y2376D01*
X3266Y2367D01*
X3247Y2353D01*
X3235Y2336D01*
X3146D01*
X3146Y2336D01*
X3128Y2333D01*
X3113Y2323D01*
X3113Y2323D01*
X3099Y2308D01*
X3089Y2312D01*
X3060Y2316D01*
X3031Y2312D01*
X3004Y2301D01*
X2981Y2283D01*
X2963Y2260D01*
X2952Y2233D01*
X2948Y2204D01*
X2952Y2175D01*
X2963Y2148D01*
X2981Y2125D01*
X3004Y2107D01*
X3031Y2096D01*
X3060Y2092D01*
X3089Y2096D01*
X3116Y2107D01*
X3139Y2125D01*
X3157Y2148D01*
X3168Y2175D01*
X3172Y2204D01*
X3170Y2219D01*
X3187Y2242D01*
X3191Y2244D01*
X3235D01*
X3247Y2227D01*
X3266Y2213D01*
X3287Y2204D01*
X3310Y2201D01*
X3333Y2204D01*
X3354Y2213D01*
X3373Y2227D01*
X3387Y2246D01*
X3396Y2267D01*
X3399Y2290D01*
X3396Y2313D01*
X3387Y2334D01*
X3373Y2353D01*
X3354Y2367D01*
X3333Y2376D01*
X3310Y2379D01*
D02*
G37*
G36*
X3830Y2199D02*
X3807Y2196D01*
X3786Y2187D01*
X3767Y2173D01*
X3756Y2158D01*
X3732Y2158D01*
X3730Y2158D01*
X3726Y2164D01*
X3710Y2176D01*
X3690Y2184D01*
X3670Y2187D01*
X3650Y2184D01*
X3630Y2176D01*
X3614Y2164D01*
X3607Y2154D01*
X3577D01*
X3577Y2154D01*
X3563Y2173D01*
X3544Y2187D01*
X3523Y2196D01*
X3500Y2199D01*
X3477Y2196D01*
X3456Y2187D01*
X3437Y2173D01*
X3423Y2154D01*
X3414Y2133D01*
X3411Y2110D01*
X3414Y2087D01*
X3423Y2066D01*
X3437Y2047D01*
X3456Y2033D01*
X3477Y2024D01*
X3500Y2021D01*
X3523Y2024D01*
X3544Y2033D01*
X3563Y2047D01*
X3574Y2062D01*
X3607D01*
X3614Y2052D01*
X3630Y2040D01*
X3650Y2032D01*
X3670Y2029D01*
X3690Y2032D01*
X3710Y2040D01*
X3726Y2052D01*
X3733Y2061D01*
X3757D01*
X3767Y2047D01*
X3786Y2033D01*
X3807Y2024D01*
X3830Y2021D01*
X3853Y2024D01*
X3874Y2033D01*
X3893Y2047D01*
X3907Y2066D01*
X3916Y2087D01*
X3919Y2110D01*
X3916Y2133D01*
X3907Y2154D01*
X3893Y2173D01*
X3874Y2187D01*
X3853Y2196D01*
X3830Y2199D01*
D02*
G37*
G36*
X3073Y2060D02*
Y1963D01*
X3170D01*
X3168Y1979D01*
X3157Y2006D01*
X3139Y2029D01*
X3116Y2047D01*
X3089Y2058D01*
X3073Y2060D01*
D02*
G37*
G36*
X3047D02*
X3031Y2058D01*
X3004Y2047D01*
X2981Y2029D01*
X2963Y2006D01*
X2952Y1979D01*
X2950Y1963D01*
X3047D01*
Y2060D01*
D02*
G37*
G36*
X3170Y1937D02*
X3073D01*
Y1840D01*
X3089Y1842D01*
X3116Y1853D01*
X3139Y1871D01*
X3157Y1894D01*
X3168Y1921D01*
X3170Y1937D01*
D02*
G37*
G36*
X3047D02*
X2950D01*
X2952Y1921D01*
X2963Y1894D01*
X2981Y1871D01*
X3004Y1853D01*
X3031Y1842D01*
X3047Y1840D01*
Y1937D01*
D02*
G37*
G36*
X3670Y1849D02*
X3647Y1846D01*
X3626Y1837D01*
X3607Y1823D01*
X3593Y1804D01*
X3584Y1783D01*
X3581Y1760D01*
X3584Y1737D01*
X3593Y1716D01*
X3607Y1697D01*
X3607Y1666D01*
X3565D01*
X3553Y1683D01*
X3534Y1697D01*
X3513Y1706D01*
X3490Y1709D01*
X3467Y1706D01*
X3446Y1697D01*
X3427Y1683D01*
X3413Y1664D01*
X3404Y1643D01*
X3401Y1620D01*
X3404Y1597D01*
X3413Y1576D01*
X3427Y1557D01*
X3446Y1543D01*
X3467Y1534D01*
X3490Y1531D01*
X3513Y1534D01*
X3534Y1543D01*
X3553Y1557D01*
X3565Y1574D01*
X3607D01*
X3614Y1564D01*
X3630Y1552D01*
X3650Y1544D01*
X3670Y1541D01*
X3690Y1544D01*
X3710Y1552D01*
X3726Y1564D01*
X3738Y1580D01*
X3746Y1600D01*
X3749Y1620D01*
X3746Y1640D01*
X3738Y1660D01*
X3733Y1666D01*
X3733Y1697D01*
X3747Y1716D01*
X3756Y1737D01*
X3759Y1760D01*
X3756Y1783D01*
X3747Y1804D01*
X3733Y1823D01*
X3714Y1837D01*
X3693Y1846D01*
X3670Y1849D01*
D02*
G37*
G36*
X5611Y1611D02*
X5389D01*
Y1580D01*
X5364Y1569D01*
X5354Y1577D01*
X5333Y1586D01*
X5310Y1589D01*
X5287Y1586D01*
X5266Y1577D01*
X5247Y1563D01*
X5233Y1544D01*
X5224Y1523D01*
X5221Y1500D01*
X5224Y1477D01*
X5233Y1456D01*
X5247Y1437D01*
X5266Y1423D01*
X5287Y1414D01*
X5310Y1411D01*
X5333Y1414D01*
X5354Y1423D01*
X5364Y1431D01*
X5389Y1420D01*
Y1389D01*
X5611D01*
Y1611D01*
D02*
G37*
G36*
X2511Y4711D02*
X2289D01*
Y4489D01*
X2349D01*
Y4180D01*
X2353Y4160D01*
X2364Y4144D01*
X3009Y3499D01*
Y2823D01*
X2949D01*
Y2601D01*
X3171D01*
Y2823D01*
X3111D01*
Y3469D01*
X3530D01*
X3539Y3444D01*
X3537Y3443D01*
X3523Y3424D01*
X3514Y3403D01*
X3511Y3380D01*
X3514Y3357D01*
X3523Y3336D01*
X3537Y3317D01*
X3556Y3303D01*
X3577Y3294D01*
X3600Y3291D01*
X3623Y3294D01*
X3644Y3303D01*
X3663Y3317D01*
X3677Y3336D01*
X3686Y3357D01*
X3689Y3380D01*
X3686Y3403D01*
X3677Y3424D01*
X3663Y3443D01*
X3661Y3444D01*
X3670Y3469D01*
X3917D01*
X3919Y3452D01*
X3928Y3431D01*
X3942Y3412D01*
X3961Y3398D01*
X3982Y3389D01*
X4005Y3386D01*
X4028Y3389D01*
X4049Y3398D01*
X4068Y3412D01*
X4076Y3424D01*
X4204D01*
X4899Y2729D01*
Y2651D01*
X4887Y2643D01*
X4873Y2624D01*
X4864Y2603D01*
X4861Y2580D01*
X4864Y2557D01*
X4873Y2536D01*
X4887Y2517D01*
X4899Y2509D01*
Y1521D01*
X4141D01*
X4133Y1533D01*
X4114Y1547D01*
X4093Y1556D01*
X4070Y1559D01*
X4047Y1556D01*
X4026Y1547D01*
X4007Y1533D01*
X3993Y1514D01*
X3984Y1493D01*
X3981Y1470D01*
X3984Y1447D01*
X3993Y1426D01*
X4007Y1407D01*
X4026Y1393D01*
X4047Y1384D01*
X4070Y1381D01*
X4093Y1384D01*
X4114Y1393D01*
X4133Y1407D01*
X4141Y1419D01*
X4929D01*
X5084Y1264D01*
X5100Y1253D01*
X5120Y1249D01*
X6480D01*
X6500Y1253D01*
X6516Y1264D01*
X6552Y1300D01*
X6563Y1316D01*
X6567Y1336D01*
Y1401D01*
X6572Y1403D01*
X6595Y1421D01*
X6613Y1444D01*
X6624Y1471D01*
X6628Y1500D01*
X6624Y1529D01*
X6613Y1556D01*
X6595Y1579D01*
X6572Y1597D01*
X6545Y1608D01*
X6516Y1612D01*
X6487Y1608D01*
X6460Y1597D01*
X6437Y1579D01*
X6419Y1556D01*
X6408Y1529D01*
X6404Y1500D01*
X6408Y1471D01*
X6419Y1444D01*
X6437Y1421D01*
X6460Y1403D01*
X6465Y1401D01*
Y1357D01*
X6459Y1351D01*
X5141D01*
X5001Y1491D01*
Y2509D01*
X5013Y2517D01*
X5027Y2536D01*
X5036Y2557D01*
X5039Y2580D01*
X5036Y2603D01*
X5027Y2624D01*
X5013Y2643D01*
X5001Y2651D01*
Y2750D01*
X4997Y2770D01*
X4986Y2786D01*
X4261Y3511D01*
X4245Y3522D01*
X4225Y3526D01*
X4076D01*
X4068Y3538D01*
X4049Y3552D01*
X4028Y3561D01*
X4005Y3564D01*
X3989Y3562D01*
X3980Y3567D01*
X3960Y3571D01*
X3081D01*
X2451Y4201D01*
Y4489D01*
X2511D01*
Y4711D01*
D02*
G37*
G36*
X6783Y1610D02*
Y1513D01*
X6880D01*
X6878Y1529D01*
X6867Y1556D01*
X6849Y1579D01*
X6826Y1597D01*
X6799Y1608D01*
X6783Y1610D01*
D02*
G37*
G36*
X6757D02*
X6741Y1608D01*
X6714Y1597D01*
X6691Y1579D01*
X6673Y1556D01*
X6662Y1529D01*
X6660Y1513D01*
X6757D01*
Y1610D01*
D02*
G37*
G36*
X6880Y1487D02*
X6783D01*
Y1390D01*
X6799Y1392D01*
X6826Y1403D01*
X6849Y1421D01*
X6867Y1444D01*
X6878Y1471D01*
X6880Y1487D01*
D02*
G37*
G36*
X6757D02*
X6660D01*
X6662Y1471D01*
X6673Y1444D01*
X6691Y1421D01*
X6714Y1403D01*
X6741Y1392D01*
X6757Y1390D01*
Y1487D01*
D02*
G37*
G36*
X6262Y1789D02*
X6239Y1786D01*
X6218Y1777D01*
X6199Y1763D01*
X6185Y1744D01*
X6176Y1723D01*
X6173Y1700D01*
X6176Y1677D01*
X6185Y1656D01*
X6199Y1637D01*
X6216Y1625D01*
Y1601D01*
X6206Y1597D01*
X6183Y1579D01*
X6165Y1556D01*
X6154Y1529D01*
X6150Y1500D01*
X6154Y1471D01*
X6165Y1444D01*
X6183Y1421D01*
X6206Y1403D01*
X6233Y1392D01*
X6262Y1388D01*
X6291Y1392D01*
X6318Y1403D01*
X6341Y1421D01*
X6359Y1444D01*
X6370Y1471D01*
X6374Y1500D01*
X6370Y1529D01*
X6359Y1556D01*
X6341Y1579D01*
X6318Y1597D01*
X6308Y1601D01*
Y1625D01*
X6325Y1637D01*
X6339Y1656D01*
X6348Y1677D01*
X6351Y1700D01*
X6348Y1723D01*
X6339Y1744D01*
X6325Y1763D01*
X6306Y1777D01*
X6285Y1786D01*
X6262Y1789D01*
D02*
G37*
G36*
X6000D02*
X5977Y1786D01*
X5956Y1777D01*
X5937Y1763D01*
X5923Y1744D01*
X5914Y1723D01*
X5911Y1700D01*
X5914Y1677D01*
X5923Y1656D01*
X5937Y1637D01*
X5955Y1624D01*
X5955Y1618D01*
X5954Y1598D01*
X5952Y1597D01*
X5929Y1579D01*
X5911Y1556D01*
X5900Y1529D01*
X5896Y1500D01*
X5900Y1471D01*
X5911Y1444D01*
X5929Y1421D01*
X5952Y1403D01*
X5979Y1392D01*
X6008Y1388D01*
X6037Y1392D01*
X6064Y1403D01*
X6087Y1421D01*
X6105Y1444D01*
X6116Y1471D01*
X6120Y1500D01*
X6116Y1529D01*
X6105Y1556D01*
X6087Y1579D01*
X6064Y1597D01*
X6054Y1601D01*
Y1631D01*
X6063Y1637D01*
X6077Y1656D01*
X6086Y1677D01*
X6089Y1700D01*
X6086Y1723D01*
X6077Y1744D01*
X6063Y1763D01*
X6044Y1777D01*
X6023Y1786D01*
X6000Y1789D01*
D02*
G37*
G36*
X5754Y1799D02*
X5731Y1796D01*
X5710Y1787D01*
X5691Y1773D01*
X5677Y1754D01*
X5668Y1733D01*
X5665Y1710D01*
X5668Y1687D01*
X5677Y1666D01*
X5691Y1647D01*
X5708Y1635D01*
Y1601D01*
X5698Y1597D01*
X5675Y1579D01*
X5657Y1556D01*
X5646Y1529D01*
X5642Y1500D01*
X5646Y1471D01*
X5657Y1444D01*
X5675Y1421D01*
X5698Y1403D01*
X5725Y1392D01*
X5754Y1388D01*
X5783Y1392D01*
X5810Y1403D01*
X5833Y1421D01*
X5851Y1444D01*
X5862Y1471D01*
X5866Y1500D01*
X5862Y1529D01*
X5851Y1556D01*
X5833Y1579D01*
X5810Y1597D01*
X5800Y1601D01*
Y1635D01*
X5817Y1647D01*
X5831Y1666D01*
X5840Y1687D01*
X5843Y1710D01*
X5840Y1733D01*
X5831Y1754D01*
X5817Y1773D01*
X5798Y1787D01*
X5777Y1796D01*
X5754Y1799D01*
D02*
G37*
G36*
X5110Y1029D02*
X5087Y1026D01*
X5066Y1017D01*
X5047Y1003D01*
X5035Y986D01*
X3895D01*
X3883Y1003D01*
X3864Y1017D01*
X3843Y1026D01*
X3820Y1029D01*
X3797Y1026D01*
X3776Y1017D01*
X3757Y1003D01*
X3743Y984D01*
X3734Y963D01*
X3731Y940D01*
X3734Y917D01*
X3743Y896D01*
X3757Y877D01*
X3776Y863D01*
X3797Y854D01*
X3820Y851D01*
X3843Y854D01*
X3864Y863D01*
X3883Y877D01*
X3895Y894D01*
X3967D01*
X3973Y886D01*
X3981Y869D01*
X3974Y853D01*
X3971Y830D01*
X3974Y807D01*
X3983Y786D01*
X3997Y767D01*
X4016Y753D01*
X4037Y744D01*
X4060Y741D01*
X4083Y744D01*
X4104Y753D01*
X4123Y767D01*
X4135Y784D01*
X4655D01*
X4667Y767D01*
X4686Y753D01*
X4707Y744D01*
X4730Y741D01*
X4753Y744D01*
X4774Y753D01*
X4793Y767D01*
X4807Y786D01*
X4816Y807D01*
X4819Y830D01*
X4816Y853D01*
X4809Y869D01*
X4817Y886D01*
X4823Y894D01*
X5035D01*
X5047Y877D01*
X5066Y863D01*
X5087Y854D01*
X5110Y851D01*
X5133Y854D01*
X5154Y863D01*
X5173Y877D01*
X5187Y896D01*
X5196Y917D01*
X5199Y940D01*
X5196Y963D01*
X5187Y984D01*
X5173Y1003D01*
X5154Y1017D01*
X5133Y1026D01*
X5110Y1029D01*
D02*
G37*
G36*
X1859Y3988D02*
X1837Y3985D01*
X1815Y3976D01*
X1797Y3962D01*
X1783Y3944D01*
X1774Y3922D01*
X1771Y3899D01*
X1774Y3877D01*
X1783Y3855D01*
X1797Y3837D01*
X1815Y3823D01*
X1837Y3814D01*
X1838Y3814D01*
X2083Y3568D01*
Y3015D01*
X2083Y3014D01*
X2074Y2992D01*
X2071Y2969D01*
X2074Y2947D01*
X2083Y2925D01*
X2083Y2924D01*
Y2086D01*
X1280D01*
X1260Y2083D01*
X1242Y2076D01*
X1226Y2064D01*
X1106Y1944D01*
X1094Y1928D01*
X1087Y1910D01*
X1084Y1890D01*
Y1845D01*
X1083Y1844D01*
X1074Y1823D01*
X1071Y1800D01*
X1074Y1777D01*
X1083Y1756D01*
X1097Y1737D01*
X1116Y1723D01*
X1137Y1714D01*
X1160Y1711D01*
X1183Y1714D01*
X1204Y1723D01*
X1223Y1737D01*
X1237Y1756D01*
X1246Y1777D01*
X1249Y1800D01*
X1246Y1823D01*
X1237Y1844D01*
X1236Y1845D01*
Y1858D01*
X1312Y1934D01*
X2083D01*
Y1480D01*
X2086Y1460D01*
X2094Y1442D01*
X2106Y1426D01*
X2986Y546D01*
X3001Y534D01*
X3020Y527D01*
X3040Y524D01*
X6620D01*
X6640Y527D01*
X6658Y534D01*
X6674Y546D01*
X7274Y1146D01*
X7286Y1162D01*
X7289Y1170D01*
X7293Y1180D01*
X7296Y1200D01*
Y1790D01*
X7293Y1810D01*
X7286Y1828D01*
X7274Y1844D01*
X7076Y2042D01*
Y2415D01*
X7077Y2416D01*
X7086Y2437D01*
X7089Y2460D01*
X7086Y2483D01*
X7077Y2504D01*
X7076Y2505D01*
Y2585D01*
X7077Y2586D01*
X7086Y2607D01*
X7089Y2630D01*
X7086Y2653D01*
X7077Y2674D01*
X7063Y2693D01*
X7044Y2707D01*
X7023Y2716D01*
X7000Y2719D01*
X6977Y2716D01*
X6956Y2707D01*
X6937Y2693D01*
X6923Y2674D01*
X6914Y2653D01*
X6911Y2630D01*
X6914Y2607D01*
X6923Y2586D01*
X6924Y2585D01*
Y2505D01*
X6923Y2504D01*
X6914Y2483D01*
X6911Y2460D01*
X6914Y2437D01*
X6923Y2416D01*
X6924Y2415D01*
Y2010D01*
X6927Y1990D01*
X6934Y1972D01*
X6946Y1956D01*
X7144Y1758D01*
Y1566D01*
X7127Y1559D01*
X7119Y1558D01*
X7103Y1579D01*
X7080Y1597D01*
X7070Y1601D01*
Y1625D01*
X7087Y1637D01*
X7101Y1656D01*
X7110Y1677D01*
X7113Y1700D01*
X7110Y1723D01*
X7101Y1744D01*
X7087Y1763D01*
X7068Y1777D01*
X7047Y1786D01*
X7024Y1789D01*
X7001Y1786D01*
X6980Y1777D01*
X6961Y1763D01*
X6947Y1744D01*
X6938Y1723D01*
X6935Y1700D01*
X6938Y1677D01*
X6947Y1656D01*
X6961Y1637D01*
X6978Y1625D01*
Y1601D01*
X6968Y1597D01*
X6945Y1579D01*
X6927Y1556D01*
X6916Y1529D01*
X6912Y1500D01*
X6916Y1471D01*
X6927Y1444D01*
X6945Y1421D01*
X6968Y1403D01*
X6995Y1392D01*
X7024Y1388D01*
X7053Y1392D01*
X7080Y1403D01*
X7103Y1421D01*
X7119Y1442D01*
X7127Y1441D01*
X7144Y1434D01*
Y1232D01*
X6588Y676D01*
X3071D01*
X2236Y1512D01*
Y2924D01*
X2236Y2925D01*
X2245Y2947D01*
X2248Y2969D01*
X2245Y2992D01*
X2236Y3014D01*
X2236Y3015D01*
Y3599D01*
X2233Y3619D01*
X2225Y3638D01*
X2213Y3653D01*
X1945Y3921D01*
X1945Y3922D01*
X1936Y3944D01*
X1922Y3962D01*
X1904Y3976D01*
X1882Y3985D01*
X1859Y3988D01*
D02*
G37*
G36*
X7013Y725D02*
Y513D01*
X7225D01*
X7222Y544D01*
X7209Y587D01*
X7188Y626D01*
X7160Y660D01*
X7126Y688D01*
X7087Y709D01*
X7044Y722D01*
X7013Y725D01*
D02*
G37*
G36*
X6987D02*
X6956Y722D01*
X6913Y709D01*
X6874Y688D01*
X6840Y660D01*
X6812Y626D01*
X6791Y587D01*
X6778Y544D01*
X6775Y513D01*
X6987D01*
Y725D01*
D02*
G37*
G36*
X513D02*
Y513D01*
X725D01*
X722Y544D01*
X709Y587D01*
X688Y626D01*
X660Y660D01*
X626Y688D01*
X587Y709D01*
X544Y722D01*
X513Y725D01*
D02*
G37*
G36*
X487D02*
X456Y722D01*
X413Y709D01*
X374Y688D01*
X340Y660D01*
X312Y626D01*
X291Y587D01*
X278Y544D01*
X275Y513D01*
X487D01*
Y725D01*
D02*
G37*
G36*
X7225Y487D02*
X7013D01*
Y275D01*
X7044Y278D01*
X7087Y291D01*
X7126Y312D01*
X7160Y340D01*
X7188Y374D01*
X7209Y413D01*
X7222Y456D01*
X7225Y487D01*
D02*
G37*
G36*
X6987D02*
X6775D01*
X6778Y456D01*
X6791Y413D01*
X6812Y374D01*
X6840Y340D01*
X6874Y312D01*
X6913Y291D01*
X6956Y278D01*
X6987Y275D01*
Y487D01*
D02*
G37*
G36*
X725D02*
X513D01*
Y275D01*
X544Y278D01*
X587Y291D01*
X626Y312D01*
X660Y340D01*
X688Y374D01*
X709Y413D01*
X722Y456D01*
X725Y487D01*
D02*
G37*
G36*
X487D02*
X275D01*
X278Y456D01*
X291Y413D01*
X312Y374D01*
X340Y340D01*
X374Y312D01*
X413Y291D01*
X456Y278D01*
X487Y275D01*
Y487D01*
D02*
G37*
%LPD*%
D12*
X6145Y3940D02*
X6175Y3970D01*
X6262Y1700D02*
Y1728D01*
X6000Y1700D02*
Y1714D01*
X6008Y1722D01*
X3828Y2108D02*
X3830Y2110D01*
X3228Y4280D02*
X3240D01*
X3438Y2458D02*
X3440Y2460D01*
D77*
X3670Y2108D02*
X3828D01*
X3500D02*
X3670D01*
X3490Y1620D02*
X3670D01*
Y1750D01*
X5310Y1500D02*
X5500D01*
X5754D02*
Y1710D01*
X6008Y1500D02*
Y1722D01*
X6262Y1500D02*
Y1728D01*
X7024Y1500D02*
Y1700D01*
X2908Y4600D02*
X3228Y4280D01*
X2654Y4600D02*
X2984Y4270D01*
X3060Y2458D02*
X3438D01*
X3146Y2290D02*
X3310D01*
X3060Y2204D02*
X3146Y2290D01*
X4750Y4600D02*
X4800Y4550D01*
Y4380D02*
Y4550D01*
X4050Y4400D02*
X4250Y4600D01*
X3820Y940D02*
X5110D01*
X4060Y830D02*
X4730D01*
X4160Y2870D02*
X4480Y2550D01*
X4740D01*
D78*
X2400Y4180D02*
X3060Y3520D01*
X2400Y4180D02*
Y4600D01*
X3960Y3520D02*
X4005Y3475D01*
X3060Y3520D02*
X3960D01*
X5120Y1300D02*
X6480D01*
X4950Y1470D02*
X5120Y1300D01*
X4950Y1470D02*
Y2580D01*
X4070Y1470D02*
X4950D01*
X6480Y1300D02*
X6516Y1336D01*
Y1500D01*
X4950Y2580D02*
Y2750D01*
X4225Y3475D02*
X4950Y2750D01*
X4005Y3475D02*
X4225D01*
X3060Y2712D02*
Y3520D01*
D79*
X5610Y3940D02*
X5820D01*
X1160Y1800D02*
Y1890D01*
X7000Y2010D02*
Y2630D01*
X5820Y3940D02*
X6145D01*
X5250Y4310D02*
Y4380D01*
Y4310D02*
X5310Y4250D01*
X1160Y1890D02*
X1280Y2010D01*
X2140D01*
X7220Y1200D02*
Y1790D01*
X7000Y2010D02*
X7220Y1790D01*
X1357Y3892D02*
X1491D01*
X1340Y3910D02*
X1357Y3892D01*
X1340Y3910D02*
Y4590D01*
X5250Y4380D02*
Y4600D01*
X3040Y600D02*
X6620D01*
X2159Y1480D02*
X3040Y600D01*
X6620D02*
X7220Y1200D01*
X2159Y1480D02*
Y2969D01*
Y3599D01*
X1859Y3899D02*
X2159Y3599D01*
D81*
X3670Y2108D02*
D03*
Y1620D02*
D03*
D82*
X5500Y1500D02*
D03*
X2400Y4600D02*
D03*
D83*
X5754Y1500D02*
D03*
X6008D02*
D03*
X6262D02*
D03*
X6516D02*
D03*
X6770D02*
D03*
X7024D02*
D03*
X3162Y4600D02*
D03*
X2908D02*
D03*
X2654D02*
D03*
X3060Y1950D02*
D03*
Y2204D02*
D03*
Y2458D02*
D03*
D84*
Y2712D02*
D03*
D85*
X6175Y4575D02*
D03*
D86*
X5725Y4260D02*
D03*
D87*
X6175Y3970D02*
D03*
D88*
X3700Y2630D02*
D03*
X3500D02*
D03*
D89*
X3750Y4600D02*
D03*
X1350D02*
D03*
D90*
X5250D02*
D03*
X4750D02*
D03*
X4250D02*
D03*
X1850D02*
D03*
D91*
X7000Y500D02*
D03*
X500D02*
D03*
X7000Y4500D02*
D03*
X500D02*
D03*
D92*
X5610Y3940D02*
D03*
X7000Y2460D02*
D03*
X1410Y2580D02*
D03*
X1500Y2710D02*
D03*
X1160Y1800D02*
D03*
X6600Y3600D02*
D03*
X6160D02*
D03*
X5990Y2620D02*
D03*
Y2180D02*
D03*
X7040Y3600D02*
D03*
X7000Y2630D02*
D03*
X1023Y4172D02*
D03*
X5310Y4250D02*
D03*
X2700Y2110D02*
D03*
X390Y3690D02*
D03*
X380Y3900D02*
D03*
Y4120D02*
D03*
X7024Y1700D02*
D03*
X6262D02*
D03*
X5754Y1710D02*
D03*
X6000Y1700D02*
D03*
X3600Y3380D02*
D03*
X3500Y2110D02*
D03*
X3490Y1620D02*
D03*
X3670Y1760D02*
D03*
X3830Y2110D02*
D03*
X5310Y1500D02*
D03*
X1491Y3892D02*
D03*
X3240Y4280D02*
D03*
X2984Y4270D02*
D03*
X3310Y2290D02*
D03*
X3440Y2460D02*
D03*
X5250Y4380D02*
D03*
X4800D02*
D03*
X4050Y4400D02*
D03*
X5820Y3940D02*
D03*
X4720Y2760D02*
D03*
X3920Y1710D02*
D03*
X2620Y3440D02*
D03*
X4730Y3630D02*
D03*
X2300Y3030D02*
D03*
X2541Y2120D02*
D03*
X3870Y2870D02*
D03*
X3350Y2880D02*
D03*
X1630Y4160D02*
D03*
X4070Y1060D02*
D03*
X4220D02*
D03*
X4730Y830D02*
D03*
X4060D02*
D03*
X1859Y3899D02*
D03*
X1670Y3470D02*
D03*
X970Y950D02*
D03*
X1710Y1350D02*
D03*
X1560D02*
D03*
X5550Y2590D02*
D03*
X5350Y2800D02*
D03*
Y3330D02*
D03*
X5490Y3230D02*
D03*
X1990Y2550D02*
D03*
X5110Y940D02*
D03*
X3820D02*
D03*
X2159Y2969D02*
D03*
X3320Y1864D02*
D03*
X4000Y3650D02*
D03*
X4005Y3475D02*
D03*
X4160Y2870D02*
D03*
X4740Y2550D02*
D03*
X6710Y2200D02*
D03*
X5380D02*
D03*
X4070Y1470D02*
D03*
X4950Y2580D02*
D03*
X4250Y4210D02*
D03*
X4500D02*
D03*
M02*
