M48
;Layer_Color=9474304
;FILE_FORMAT=4:2
METRIC,LZ
;TYPE=PLATED
T1F00S00C0.40
T2F00S00C0.50
T3F00S00C0.70
T4F00S00C0.80
T5F00S00C0.90
%
T01
X0038Y-0001
X-0001
Y0019
X0038
T02
X00143Y00018
X00165Y000925
X002308Y000718
X002442Y000482
X00047Y00053
X00057Y00074
X00043Y00086
X000483Y0011
X00103Y001205
X00059Y00017
X00042
X001658Y001642
X003075Y001692
X00309Y0013
X00293
T03
X00075Y001475
X003325Y0015
Y0013
T04
X00075Y001275
T05
X003325Y00055
Y000804
X00025Y000825
Y001079
Y000571
Y000317
Y001333
Y001587
M30
