G04*
G04 #@! TF.GenerationSoftware,Altium Limited,Altium Designer,18.1.1 (9)*
G04*
G04 Layer_Color=8388736*
%FSLAX42Y42*%
%MOMM*%
G71*
G01*
G75*
%ADD10R,1.40X0.90*%
%ADD11R,1.20X0.80*%
%ADD12R,2.80X7.20*%
%ADD13R,1.15X0.80*%
%ADD14R,1.20X1.00*%
%ADD15R,0.80X1.15*%
G04:AMPARAMS|DCode=16|XSize=2.47mm|YSize=1.85mm|CornerRadius=0.35mm|HoleSize=0mm|Usage=FLASHONLY|Rotation=90.000|XOffset=0mm|YOffset=0mm|HoleType=Round|Shape=RoundedRectangle|*
%AMROUNDEDRECTD16*
21,1,2.47,1.16,0,0,90.0*
21,1,1.78,1.85,0,0,90.0*
1,1,0.70,0.58,0.89*
1,1,0.70,0.58,-0.89*
1,1,0.70,-0.58,-0.89*
1,1,0.70,-0.58,0.89*
%
%ADD16ROUNDEDRECTD16*%
%ADD17R,1.00X1.20*%
%ADD18O,1.65X0.80*%
%ADD19C,1.20*%
%ADD20C,1.40*%
%ADD21R,1.60X1.60*%
%ADD22C,1.60*%
%ADD23C,1.80*%
%ADD24R,1.80X1.80*%
%ADD25R,1.90X1.90*%
%ADD26C,1.90*%
%ADD27C,1.20*%
%ADD28C,1.45*%
D10*
X1348Y1395D02*
D03*
Y1205D02*
D03*
X1552Y1300D02*
D03*
D11*
X1130Y250D02*
D03*
X890Y155D02*
D03*
Y345D02*
D03*
X1095Y800D02*
D03*
X855Y705D02*
D03*
Y895D02*
D03*
D12*
X2700Y1400D02*
D03*
X2138D02*
D03*
D13*
X1175D02*
D03*
Y1250D02*
D03*
X700Y825D02*
D03*
Y675D02*
D03*
X1375Y300D02*
D03*
Y450D02*
D03*
X2075Y775D02*
D03*
Y925D02*
D03*
X740Y175D02*
D03*
Y325D02*
D03*
D14*
X2950Y1692D02*
D03*
Y1557D02*
D03*
D15*
X1135Y1050D02*
D03*
X985D02*
D03*
X700Y975D02*
D03*
X550D02*
D03*
X1375Y600D02*
D03*
X1225D02*
D03*
X2300Y200D02*
D03*
X2450D02*
D03*
X1925Y750D02*
D03*
X1775D02*
D03*
X1225D02*
D03*
X1375D02*
D03*
X1925Y925D02*
D03*
X1775D02*
D03*
X2725Y200D02*
D03*
X2575D02*
D03*
X2725Y375D02*
D03*
X2575D02*
D03*
X605Y350D02*
D03*
X455D02*
D03*
D16*
X1825Y1642D02*
D03*
Y1209D02*
D03*
D17*
X2308Y600D02*
D03*
X2442D02*
D03*
D18*
X2123Y210D02*
D03*
Y337D02*
D03*
Y464D02*
D03*
Y591D02*
D03*
X1577Y210D02*
D03*
Y337D02*
D03*
Y464D02*
D03*
Y591D02*
D03*
D19*
X3800Y-100D02*
D03*
Y1900D02*
D03*
X-100D02*
D03*
Y-100D02*
D03*
D20*
X750Y1275D02*
D03*
D21*
Y1475D02*
D03*
X3325Y1500D02*
D03*
D22*
Y1300D02*
D03*
D23*
Y550D02*
D03*
D24*
Y804D02*
D03*
D25*
X250Y1587D02*
D03*
D26*
Y1333D02*
D03*
Y1079D02*
D03*
Y825D02*
D03*
Y571D02*
D03*
Y317D02*
D03*
D27*
X3090Y1300D02*
D03*
X2930D02*
D03*
D28*
X590Y170D02*
D03*
X470Y530D02*
D03*
X420Y170D02*
D03*
X430Y860D02*
D03*
X483Y1100D02*
D03*
X1030Y1205D02*
D03*
X570Y740D02*
D03*
X1430Y180D02*
D03*
X3075Y1692D02*
D03*
X2442Y482D02*
D03*
X1650Y925D02*
D03*
X1658Y1642D02*
D03*
X2308Y718D02*
D03*
M02*
